<svg width="1221" height="2063" viewBox="0 0 1221 2063" fill="none" xmlns="http://www.w3.org/2000/svg">
<path d="M692.423 1134.07H528.094V1668.42H692.423V1134.07Z" fill="#4F5B6C"/>
<path d="M806.83 995.674C747.865 1025.85 681.11 1042.87 610.26 1042.87C601.887 1042.87 595.105 1049.66 595.105 1058.03C595.105 1066.4 601.887 1073.18 610.26 1073.18C685.971 1073.18 757.539 1054.97 820.648 1022.67C828.097 1018.85 831.05 1009.71 827.234 1002.26C823.418 994.811 814.279 991.858 806.83 995.674Z" fill="white"/>
<path d="M1042.39 610.74C1042.39 741.928 983.993 859.334 891.73 938.643C885.386 944.099 884.657 953.663 890.114 960.019C895.57 966.363 905.147 967.092 911.49 961.635C1010.16 876.883 1072.71 751.054 1072.7 610.752C1072.7 602.379 1065.91 595.598 1057.54 595.598C1049.17 595.598 1042.39 602.379 1042.39 610.752V610.74Z" fill="white"/>
<path d="M509.137 1401.29L509.137 1961.43C509.137 2017.44 554.551 2062.86 610.563 2062.86C666.575 2062.86 712.002 2017.46 712.002 1961.43V1401.29H509.137Z" fill="#BD9A7A"/>
<path d="M529.516 1469.66V1565.4C529.516 1573.78 536.297 1580.56 544.67 1580.56C553.043 1580.56 559.824 1573.78 559.824 1565.4V1469.66C559.824 1461.29 553.043 1454.51 544.67 1454.51C536.297 1454.51 529.516 1461.29 529.516 1469.66Z" fill="white"/>
<path d="M529.516 1632.07V1667.97C529.516 1676.34 536.297 1683.13 544.67 1683.13C553.043 1683.13 559.824 1676.34 559.824 1667.97V1632.07C559.824 1623.7 553.043 1616.92 544.67 1616.92C536.297 1616.92 529.516 1623.7 529.516 1632.07Z" fill="white"/>
<path d="M610.26 0.494141C947.303 0.494141 1220.52 273.722 1220.52 610.739H1220.51C1220.51 947.769 947.279 1221 610.248 1221C273.217 1221 0 947.781 0 610.739C4.62538e-05 273.698 273.217 0.494338 610.26 0.494141ZM610.26 105.396C331.137 105.396 104.854 331.654 104.854 610.788C104.854 889.922 331.137 1116.19 610.26 1116.19C889.383 1116.19 1115.67 889.922 1115.67 610.788C1115.67 331.666 889.383 105.396 610.26 105.396Z" fill="#606060"/>
</svg>
