<svg width="1188" height="1189" viewBox="0 0 1188 1189" fill="none" xmlns="http://www.w3.org/2000/svg">
<path d="M530.576 740.185L447.748 657.358L178.417 926.689L261.244 1009.52L530.576 740.185Z" fill="#4F5B6C"/>
<path d="M1007.7 689.768C867.006 830.46 638.904 830.454 498.216 689.766C357.529 549.079 357.522 320.977 498.215 180.284C638.908 39.5911 867.004 39.6038 1007.69 180.291C1148.38 320.979 1148.39 549.081 1007.7 689.768Z" fill="#C5E5E8" fill-opacity="0.55"/>
<path d="M657.992 728.1C613.062 713.589 570.834 688.524 535.123 652.813C530.903 648.592 524.067 648.592 519.847 652.813C515.626 657.033 515.626 663.869 519.847 668.089C558.008 706.25 603.262 733.141 651.352 748.669C657.03 750.5 663.125 747.382 664.956 741.704C666.788 736.026 663.67 729.931 657.992 728.1Z" fill="white"/>
<path d="M970.744 652.807C904.621 718.93 816.012 748.675 729.534 742.145C723.586 741.698 718.398 746.151 717.945 752.105C717.498 758.052 721.957 763.247 727.905 763.694C820.355 770.708 915.304 738.813 986.015 668.09C990.235 663.87 990.235 657.034 986.015 652.813C981.794 648.593 974.958 648.593 970.738 652.813L970.744 652.807Z" fill="white"/>
<path d="M303.503 782.492L21.1737 1064.82C-7.05796 1093.05 -7.05792 1138.83 21.1739 1167.07C49.4057 1195.3 95.1867 1195.31 123.424 1167.07L405.754 884.743L303.503 782.492Z" fill="#BD9A7A"/>
<path d="M279.314 827.231L231.059 875.486C226.838 879.707 226.838 886.543 231.059 890.763C235.279 894.984 242.115 894.983 246.335 890.763L294.591 842.508C298.811 838.287 298.811 831.451 294.591 827.231C290.37 823.011 283.535 823.011 279.314 827.231Z" fill="white"/>
<path d="M197.461 909.084L179.367 927.178C175.147 931.398 175.147 938.234 179.367 942.455C183.588 946.675 190.423 946.675 194.644 942.455L212.738 924.361C216.958 920.14 216.958 913.304 212.738 909.084C208.518 904.864 201.682 904.864 197.461 909.084Z" fill="white"/>
<path fill-rule="evenodd" clip-rule="evenodd" d="M1060.53 127.414C1230.41 297.295 1230.4 572.722 1060.53 742.589L1060.53 742.583C890.653 912.457 615.221 912.457 445.346 742.582C275.471 572.707 275.471 297.287 445.351 127.407C615.231 -42.4736 890.645 -42.4667 1060.53 127.414ZM1007.65 180.289C866.962 39.6019 638.867 39.5894 498.174 180.282C357.481 320.975 357.487 549.077 498.174 689.764C638.862 830.452 866.964 830.459 1007.66 689.766C1148.34 549.079 1148.34 320.976 1007.65 180.289Z" fill="#606060"/>
</svg>
