<svg width="1253" height="3650" viewBox="0 0 1253 3650" fill="none" xmlns="http://www.w3.org/2000/svg">
<rect x="313" width="627" height="703" rx="100" fill="#3D3D3D"/>
<path d="M99.2455 2370.02H99.1562C99.1562 2370.02 99.2455 2370.08 99.2812 2370.09C99.2634 2370.08 99.2634 2370.04 99.2455 2370.02Z" fill="#555DA2"/>
<path d="M1240.23 2217.01C1230.66 2266.29 1208.73 2309.67 1177.82 2348.66C1170.39 2358.01 1161.38 2366.34 1152.13 2373.95C1142.46 2381.91 1130.8 2386.62 1118.66 2379.76C1107.7 2373.56 1105.14 2362.33 1105.74 2350.49C1107.41 2317.56 1109.46 2284.65 1110.93 2251.72C1111.52 2238.84 1111.04 2225.79 1105.85 2213.73C1101.92 2204.65 1095.36 2195.23 1085.16 2195.81C1072.64 2196.54 1076.6 2209.43 1075.66 2217.1C1073.7 2233.04 1073.88 2249.22 1072.78 2265.26C1071.91 2278.09 1065.67 2287.05 1051.95 2287.12C1038.34 2287.21 1028.26 2280.69 1027.12 2266.13C1023.46 2219.59 1022.49 2172.92 1024.81 2126.33C1025.58 2111.35 1032.76 2097.63 1047.67 2091.84C1069.53 2083.34 1074.27 2067.19 1074.04 2045.83C1072.96 1941.74 1058.76 1839.01 1042.14 1736.61C1015.86 1574.72 988.525 1413.02 961.567 1251.25C960.127 1242.68 958.066 1234.21 952.183 1225.57C946.443 1266.94 940.419 1308.26 934.999 1349.67C917.992 1479.52 891.051 1608.13 887.923 1739.72C886.768 1788.08 888.367 1836.22 893.059 1884.25C901.714 1972.65 895.689 2061.09 894.641 2149.5C889.469 2587.91 884.227 3026.32 878.362 3464.72C878.096 3485.88 882.876 3499.35 901.483 3512.15C949.162 3544.88 994.727 3580.73 1040.95 3615.59C1048.47 3621.28 1058.77 3627.53 1055.27 3638.5C1051.86 3649.2 1039.65 3649.37 1030.43 3649.55C996.682 3650.23 962.899 3650.05 929.134 3649.62C859.987 3648.73 790.822 3648.27 721.71 3646.1C671.454 3644.52 670.334 3642.94 669.641 3593.43C664.879 3257.2 660.471 2920.98 655.833 2584.75C653.701 2430.3 651.088 2275.87 649.276 2121.42C649.08 2105.08 646.788 2096.92 627.151 2096.79C607.14 2096.65 603.408 2103.99 603.195 2121.96C598.486 2504.03 593.261 2886.13 588.108 3268.2C586.597 3379.2 585.14 3490.22 583.327 3601.22C582.741 3638.05 579.595 3643.97 544.604 3644.95C437.729 3647.92 330.783 3648.72 223.872 3649.8C213.991 3649.89 200.521 3650.44 197.126 3638.23C193.768 3626.22 205.497 3620.09 213.618 3613.97C259.858 3579.13 305.654 3543.66 353.067 3510.49C369.008 3499.35 374.215 3487.89 373.966 3469.12C368.688 3070.15 363.357 2671.15 359.536 2272.16C358.31 2144.31 348.02 2016.11 359.678 1888.66C373.682 1735.31 353.974 1585.52 327.975 1435.43C317.561 1375.27 312.052 1314.28 304.073 1253.68C302.989 1245.35 304.268 1236.23 295.649 1225.75C287.279 1274.37 279.264 1320.08 271.534 1365.84C243.207 1533.9 213.92 1701.82 191.013 1870.71C183.034 1929.66 178.556 1989.07 178.218 2048.71C178.111 2068.24 183.443 2082.88 203.115 2090.73C219.802 2097.42 227.764 2112.06 227.853 2129.08C228.101 2173.3 227.355 2217.53 226.004 2261.73C225.525 2277.24 216.728 2287.99 199.952 2287.19C183.443 2286.41 179.657 2274.34 179.124 2260.06C178.502 2243.19 177.383 2226.33 175.979 2209.5C175.535 2204.26 176.352 2197.09 169.208 2195.6C163.308 2194.37 158.545 2198.52 154.529 2202.5C142.623 2214.3 141.023 2229.85 141.467 2245.08C142.48 2280.42 144.951 2315.73 146.479 2351.06C147.03 2363.79 144.044 2376.17 130.716 2380.76C118.472 2384.97 106.867 2381.91 99.1545 2370.04C99.19 2370.06 99.2433 2370.08 99.2789 2370.09C99.2611 2370.08 99.2611 2370.04 99.2433 2370.02H99.1545C75.519 2358.35 63.9855 2335.71 51.0837 2314.93C1.09374 2234.39 -2.74481 2144.01 1.11151 2053.59C6.62054 1924.18 22.3302 1795.58 39.9768 1667.29C61.6931 1509.55 86.5015 1352.31 121.706 1196.92C130.947 1156.18 141.912 1115.85 154.689 1075.97C184.153 983.974 244.415 923.464 336.7 895.404C395.256 877.597 451.004 852.362 508.635 832.174C515.531 829.758 522.799 827.821 522.763 818.349C522.71 797.432 522.799 776.516 522.568 755.599C522.426 744.635 512.527 744.404 505.597 741.382C452.052 717.996 406.327 685.226 376.188 633.779C371.336 625.48 366.129 616.932 363.623 607.816C358.772 590.24 351.024 576.841 330.96 574.744C328.721 574.513 326.677 572.611 324.509 571.545C278.074 549.011 252.999 405.44 321.559 376.42C335.67 370.449 334.692 360.301 334.017 348.892C330.925 297.072 331.991 245.785 355.502 197.821C401.778 103.404 476.239 49.2734 582.048 42.0228C643.287 37.8466 704.721 38.0776 762.406 63.1881C867.184 108.824 927.908 214.082 919.698 334.8C918.294 355.61 915.682 374.962 941.663 382.995C946.479 384.488 950.3 390.068 953.961 394.315C995.687 442.83 969.048 555.285 909.924 578.44C901.056 581.906 897.306 587.344 894.765 595.198C870.916 668.824 818.9 715.01 748.847 742.236C732.817 748.455 729.139 756.861 729.281 772.5C729.761 826.897 729.174 827.11 780.071 846.089C837.276 867.432 895.085 887.211 951.81 909.745C1023.69 938.303 1068.97 993.002 1093.41 1064.99C1138.32 1197.26 1159.89 1334.83 1182.99 1471.98C1212.65 1648.09 1233.93 1825.27 1249.33 2003.16C1255.54 2074.78 1254.03 2146.16 1240.23 2217.01Z" fill="#B88067"/>
<path d="M99.2812 2370.09L99.1562 2370.02H99.2455C99.2455 2370.02 99.2455 2370.08 99.2812 2370.09Z" fill="#F9F9FB"/>
<path d="M891.326 1867C891.799 1872.75 892.316 1878.5 892.877 1884.25C901.532 1972.65 895.508 2061.09 894.459 2149.5C889.318 2585.34 884.106 3021.18 878.284 3457H667.546C663.502 3166.25 659.663 2875.5 655.652 2584.75C653.519 2430.3 650.907 2275.87 649.094 2121.42C648.899 2105.08 646.606 2096.92 626.969 2096.79C606.96 2096.65 603.227 2103.99 603.014 2121.96C598.305 2504.03 593.08 2886.13 587.926 3268.21C587.07 3331.13 586.229 3394.06 585.333 3457H373.625C368.399 3062.06 363.137 2667.11 359.355 2272.16C358.129 2144.31 347.84 2016.11 359.498 1888.66C360.158 1881.43 360.743 1874.21 361.256 1867H891.326Z" fill="#4B4A4D"/>
<path d="M834.294 866.16C873.408 880.319 912.552 894.394 951.194 909.744C1023.08 938.302 1068.36 993.001 1092.79 1064.99C1137.7 1197.26 1159.28 1334.83 1182.38 1471.98C1209.75 1634.51 1229.98 1797.94 1245.05 1962H1069.9C1064.51 1886.43 1053.67 1811.43 1041.52 1736.61C1015.24 1574.72 987.909 1413.02 960.95 1251.25C959.511 1242.68 957.449 1234.21 951.567 1225.57C945.827 1266.94 939.803 1308.26 934.383 1349.67C917.376 1479.52 890.434 1608.13 887.307 1739.72C886.152 1788.08 887.752 1836.22 892.443 1884.25C894.98 1910.16 896.254 1936.08 896.764 1962H354.562C355.403 1937.53 356.829 1913.08 359.062 1888.66C373.066 1735.31 353.357 1585.52 327.358 1435.43C316.945 1375.27 311.436 1314.28 303.457 1253.68C302.373 1245.35 303.652 1236.23 295.033 1225.75C286.663 1274.37 278.648 1320.08 270.918 1365.84C242.591 1533.9 213.304 1701.82 190.397 1870.71C186.294 1901.03 183.118 1931.47 180.953 1962H6C13.5364 1863.43 25.8828 1765.27 39.3604 1667.29C61.0766 1509.55 85.8854 1352.31 121.09 1196.92C130.331 1156.17 141.296 1115.85 154.073 1075.97C183.538 983.973 243.799 923.463 336.084 895.402C363.783 886.979 390.853 876.891 417.792 866.464C431.286 913.04 519.36 948.999 626 948.999C732.872 948.999 821.096 912.884 834.294 866.16Z" fill="#EEEEEE"/>
<path d="M877.826 3464.72C877.559 3485.88 882.34 3499.35 900.946 3512.15C948.626 3544.88 994.191 3580.73 1040.41 3615.59C1047.93 3621.28 1058.24 3627.53 1054.74 3638.5C1051.33 3649.2 1039.12 3649.38 1029.89 3649.55C996.146 3650.23 962.363 3650.05 928.598 3649.62C859.451 3648.73 790.285 3648.27 721.174 3646.1C670.918 3644.52 669.798 3642.94 669.105 3593.43C668.461 3547.95 667.824 3502.48 667.191 3457H877.929C877.894 3459.57 877.86 3462.14 877.826 3464.72Z" fill="#313131"/>
<path d="M584.977 3457C584.292 3505.07 583.576 3553.15 582.791 3601.21C582.204 3638.05 579.058 3643.97 544.067 3644.95C437.192 3647.92 330.246 3648.72 223.336 3649.8C213.455 3649.89 199.984 3650.44 196.59 3638.23C193.231 3626.22 204.96 3620.09 213.082 3613.97C259.322 3579.13 305.118 3543.65 352.531 3510.49C368.472 3499.35 373.678 3487.89 373.429 3469.12C373.376 3465.08 373.323 3461.04 373.269 3457H584.977Z" fill="#313131"/>
<rect x="313" width="627" height="344" rx="100" fill="#3D3D3D"/>
<rect x="435" y="375" width="103" height="137" rx="20" fill="white"/>
<rect x="714" y="375" width="103" height="137" rx="20" fill="white"/>
<rect x="584" y="478" width="85" height="129" rx="20" fill="#FFAF97"/>
<rect x="715" y="663" width="29" height="179" rx="14.5" transform="rotate(90 715 663)" fill="#764D4D"/>
<rect x="463" y="408" width="47" height="70" rx="20" fill="#3A3A3A"/>
<rect x="742" y="408" width="47" height="70" rx="20" fill="#3A3A3A"/>
<rect x="688" y="363" width="155" height="33" rx="16.5" fill="#3D3D3D"/>
<rect x="412" y="363" width="155" height="33" rx="16.5" fill="#3D3D3D"/>
</svg>
