<svg width="881" height="1725" viewBox="0 0 881 1725" fill="none" xmlns="http://www.w3.org/2000/svg">
<path d="M281.318 1725C292.67 1709.2 318.757 1697.53 347.5 1697.53C376.243 1697.53 402.33 1709.2 413.682 1725H466C457.208 1687.46 420.107 1658.46 371.654 1651.13V1583H323.346V1651.13C274.893 1658.46 237.792 1687.46 229 1725H281.318Z" fill="#FBA92B"/>
<path d="M450.318 1725C461.67 1709.2 487.757 1697.53 516.5 1697.53C545.243 1697.53 571.33 1709.2 582.682 1725H635C626.208 1687.46 589.107 1658.46 540.654 1651.13V1583H492.346V1651.13C443.893 1658.46 406.792 1687.46 398 1725H450.318Z" fill="#FBA92B"/>
<path d="M876.156 576.364C874.997 428.563 791.706 300.628 669.959 235.572C692.956 220.686 712.619 194.151 712.619 146.737C712.619 61.9621 598.554 0 598.554 0V206.138C562.223 195.263 523.621 189.511 483.715 189.801L386.366 190.575C350.325 190.865 315.491 196.133 282.446 205.558V0C282.446 0 168.38 61.9621 168.38 146.737C168.38 193.136 187.222 219.574 209.591 234.654C84.1235 300.144 -1.14782 431.898 0.0116802 583.179L4.84292 1206.47C6.53385 1421.6 182.198 1594.68 397.284 1592.99L494.634 1592.21C709.672 1590.52 882.679 1414.79 880.988 1199.61L876.156 576.316V576.364Z" fill="#B2B3C9"/>
<path d="M638.421 367C535.47 367 450.763 445.065 440 545.38C429.237 445.114 344.53 367 241.579 367C131.34 367 42 456.577 42 567C42 677.423 131.388 767 241.579 767H638.421C748.66 767 838 677.423 838 567C838 456.577 748.66 367 638.421 367Z" fill="#D5D8E9"/>
<path d="M379.974 576.517C379.974 654.846 316.48 718.339 238.104 718.339C159.727 718.339 96.2812 654.846 96.2812 576.517C96.2812 498.189 159.775 434.695 238.104 434.695C316.432 434.695 379.974 498.189 379.974 576.517Z" fill="#96ABC4"/>
<path d="M274.922 552.84C269.993 570.815 253.564 584.103 234.043 584.103C214.521 584.103 198.092 570.815 193.163 552.84H148.949C154.458 594.927 190.457 627.592 234.043 627.592C277.628 627.592 313.627 594.976 319.136 552.84H274.922Z" fill="#5A5F77"/>
<path d="M500.051 576.517C500.051 654.846 563.545 718.339 641.921 718.339C720.298 718.339 783.744 654.846 783.744 576.517C783.744 498.189 720.25 434.695 641.921 434.695C563.593 434.695 500.051 498.189 500.051 576.517Z" fill="#96ABC4"/>
<path d="M605.151 552.84C610.08 570.815 626.509 584.103 646.031 584.103C665.552 584.103 681.982 570.815 686.91 552.84H731.124C725.616 594.927 689.616 627.592 646.031 627.592C602.445 627.592 566.446 594.976 560.938 552.84H605.151Z" fill="#5A5F77"/>
<path d="M570.952 199.392C542.759 193.107 513.458 189.771 483.386 190.012L386.277 190.786C356.398 191.028 327.386 194.75 299.482 201.374C299.337 201.664 299.145 201.954 299 202.293L439.53 325L571 199.44L570.952 199.392Z" fill="#7B8B9D"/>
<path d="M4.51328 1206.29C6.20485 1421.52 181.935 1594.68 397.102 1592.99L494.488 1592.21C709.607 1590.52 882.679 1414.7 880.988 1199.42L878.523 884H2L4.51328 1206.24V1206.29Z" fill="#829197"/>
<path d="M2 808C2 808 229 964.5 229 1199.3C229 1434.1 2 1592 2 1592V808Z" fill="#96ABC4"/>
<path d="M878 808C878 808 651 964.5 651 1199.3C651 1434.1 878 1592 878 1592V808Z" fill="#96ABC4"/>
<path d="M440.024 752L409 632H471L440.024 752Z" fill="#7B8B9D"/>
<path d="M290.34 1101.62H404.571C404.571 1101.62 397.758 1143.13 347.455 1143.13C297.153 1143.13 290.34 1101.62 290.34 1101.62Z" fill="#585A69"/>
<path d="M459.801 1101.62H574.032C574.032 1101.62 567.17 1143.13 516.916 1143.13C466.662 1143.13 459.801 1101.62 459.801 1101.62Z" fill="#585A69"/>
<path d="M290.34 1246.15H404.571C404.571 1246.15 397.758 1287.66 347.455 1287.66C297.153 1287.66 290.34 1246.15 290.34 1246.15Z" fill="#585A69"/>
<path d="M459.801 1246.15H574.032C574.032 1246.15 567.17 1287.66 516.916 1287.66C466.662 1287.66 459.801 1246.15 459.801 1246.15Z" fill="#585A69"/>
<path d="M290.34 1390.68H404.571C404.571 1390.68 397.758 1432.19 347.455 1432.19C297.153 1432.19 290.34 1390.68 290.34 1390.68Z" fill="#585A69"/>
<path d="M459.801 1390.68H574.032C574.032 1390.68 567.17 1432.19 516.916 1432.19C466.662 1432.19 459.801 1390.68 459.801 1390.68Z" fill="#585A69"/>
<path d="M241.871 1027.93H356.102C356.102 1027.93 349.289 1069.44 298.987 1069.44C248.684 1069.44 241.871 1027.93 241.871 1027.93Z" fill="#BCBDC0"/>
<path d="M380.844 1027.93H495.075C495.075 1027.93 488.213 1069.44 437.959 1069.44C387.705 1069.44 380.844 1027.93 380.844 1027.93Z" fill="#BCBDC0"/>
<path d="M519.816 1027.93H634.047C634.047 1027.93 627.186 1069.44 576.932 1069.44C526.678 1069.44 519.816 1027.93 519.816 1027.93Z" fill="#BCBDC0"/>
<path d="M241.871 1179.61H356.102C356.102 1179.61 349.289 1221.12 298.987 1221.12C248.684 1221.12 241.871 1179.61 241.871 1179.61Z" fill="#BCBDC0"/>
<path d="M380.844 1179.61H495.075C495.075 1179.61 488.213 1221.12 437.959 1221.12C387.705 1221.12 380.844 1179.61 380.844 1179.61Z" fill="#BCBDC0"/>
<path d="M519.816 1179.61H634.047C634.047 1179.61 627.186 1221.12 576.932 1221.12C526.678 1221.12 519.816 1179.61 519.816 1179.61Z" fill="#BCBDC0"/>
<path d="M241.871 1331.24H356.102C356.102 1331.24 349.289 1372.75 298.987 1372.75C248.684 1372.75 241.871 1331.24 241.871 1331.24Z" fill="#BCBDC0"/>
<path d="M380.844 1331.24H495.075C495.075 1331.24 488.213 1372.75 437.959 1372.75C387.705 1372.75 380.844 1331.24 380.844 1331.24Z" fill="#BCBDC0"/>
<path d="M519.816 1331.24H634.047C634.047 1331.24 627.186 1372.75 576.932 1372.75C526.678 1372.75 519.816 1331.24 519.816 1331.24Z" fill="#BCBDC0"/>
</svg>
