<svg width="881" height="1725" viewBox="0 0 881 1725" fill="none" xmlns="http://www.w3.org/2000/svg">
<path d="M281.318 1725C292.67 1709.2 318.757 1697.53 347.5 1697.53C376.243 1697.53 402.33 1709.2 413.682 1725H466C457.208 1687.46 420.107 1658.46 371.654 1651.13V1583H323.346V1651.13C274.893 1658.46 237.792 1687.46 229 1725H281.318Z" fill="#FBA92B"/>
<path d="M451.318 1725C462.67 1709.2 488.757 1697.53 517.5 1697.53C546.243 1697.53 572.33 1709.2 583.682 1725H636C627.208 1687.46 590.107 1658.46 541.654 1651.13V1583H493.346V1651.13C444.893 1658.46 407.792 1687.46 399 1725H451.318Z" fill="#FBA92B"/>
<path d="M876.156 576.364C874.997 428.563 791.706 300.628 669.959 235.572C692.956 220.686 712.619 194.151 712.619 146.737C712.619 61.9621 598.554 0 598.554 0V206.138C562.223 195.263 523.621 189.511 483.715 189.801L386.366 190.575C350.325 190.865 315.491 196.133 282.446 205.558V0C282.446 0 168.38 61.9621 168.38 146.737C168.38 193.136 187.222 219.574 209.591 234.654C84.1235 300.144 -1.14782 431.898 0.0116802 583.179L4.84292 1206.47C6.53385 1421.6 182.198 1594.68 397.284 1592.99L494.634 1592.21C709.672 1590.52 882.679 1414.79 880.988 1199.61L876.156 576.316V576.364Z" fill="#C9B2B2"/>
<path d="M639.17 367C536.09 367 451.277 445.065 440.5 545.38C429.723 445.114 344.91 367 241.83 367C131.452 367 42 456.577 42 567C42 677.423 131.501 767 241.83 767H639.17C749.548 767 839 677.423 839 567C839 456.577 749.548 367 639.17 367Z" fill="#E9D5D5"/>
<path d="M380.31 576.517C380.31 654.846 316.816 718.339 238.439 718.339C160.063 718.339 96.6172 654.846 96.6172 576.517C96.6172 498.189 160.111 434.695 238.439 434.695C316.768 434.695 380.31 498.189 380.31 576.517Z" fill="#C49696"/>
<path d="M275.258 552.84C270.329 570.815 253.9 584.103 234.379 584.103C214.857 584.103 198.428 570.815 193.499 552.84H149.285C154.794 594.927 190.793 627.592 234.379 627.592C277.964 627.592 313.963 594.976 319.472 552.84H275.258Z" fill="#775A5A"/>
<path d="M500.387 576.517C500.387 654.846 563.881 718.339 642.257 718.339C720.634 718.339 784.079 654.846 784.079 576.517C784.079 498.189 720.586 434.695 642.257 434.695C563.929 434.695 500.387 498.189 500.387 576.517Z" fill="#C49696"/>
<path d="M605.487 552.84C610.416 570.815 626.845 584.103 646.367 584.103C665.888 584.103 682.318 570.815 687.246 552.84H731.46C725.952 594.927 689.952 627.592 646.367 627.592C602.781 627.592 566.782 594.976 561.273 552.84H605.487Z" fill="#775A5A"/>
<path d="M571.952 199.392C543.655 193.107 514.246 189.771 484.064 190.012L386.598 190.786C356.609 191.028 327.49 194.75 299.484 201.374C299.339 201.664 299.145 201.954 299 202.293L440.047 325L572 199.44L571.952 199.392Z" fill="#9D7B7B"/>
<path d="M4.51328 1206.29C6.20485 1421.52 181.935 1594.68 397.102 1592.99L494.488 1592.21C709.607 1590.52 882.679 1414.7 880.988 1199.42L878.523 884H2L4.51328 1206.24V1206.29Z" fill="#978282"/>
<path d="M2 808C2 808 229 964.5 229 1199.3C229 1434.1 2 1592 2 1592V808Z" fill="#C49696"/>
<path d="M878 808C878 808 651 964.5 651 1199.3C651 1434.1 878 1592 878 1592V808Z" fill="#C49696"/>
<path d="M440.024 752L409 632H471L440.024 752Z" fill="#9D7B7B"/>
<path d="M290.672 1101.62H404.903C404.903 1101.62 398.09 1143.13 347.787 1143.13C297.485 1143.13 290.672 1101.62 290.672 1101.62Z" fill="#695858"/>
<path d="M460.137 1101.62H574.368C574.368 1101.62 567.506 1143.13 517.252 1143.13C466.998 1143.13 460.137 1101.62 460.137 1101.62Z" fill="#695858"/>
<path d="M290.672 1246.15H404.903C404.903 1246.15 398.09 1287.66 347.787 1287.66C297.485 1287.66 290.672 1246.15 290.672 1246.15Z" fill="#695858"/>
<path d="M460.137 1246.15H574.368C574.368 1246.15 567.506 1287.66 517.252 1287.66C466.998 1287.66 460.137 1246.15 460.137 1246.15Z" fill="#695858"/>
<path d="M290.672 1390.68H404.903C404.903 1390.68 398.09 1432.19 347.787 1432.19C297.485 1432.19 290.672 1390.68 290.672 1390.68Z" fill="#695858"/>
<path d="M460.137 1390.68H574.368C574.368 1390.68 567.506 1432.19 517.252 1432.19C466.998 1432.19 460.137 1390.68 460.137 1390.68Z" fill="#695858"/>
<path d="M242.207 1027.93H356.438C356.438 1027.93 349.625 1069.44 299.323 1069.44C249.02 1069.44 242.207 1027.93 242.207 1027.93Z" fill="#C0BCBC"/>
<path d="M381.18 1027.93H495.411C495.411 1027.93 488.549 1069.44 438.295 1069.44C388.041 1069.44 381.18 1027.93 381.18 1027.93Z" fill="#C0BCBC"/>
<path d="M520.152 1027.93H634.383C634.383 1027.93 627.522 1069.44 577.268 1069.44C527.014 1069.44 520.152 1027.93 520.152 1027.93Z" fill="#C0BCBC"/>
<path d="M242.207 1179.61H356.438C356.438 1179.61 349.625 1221.12 299.323 1221.12C249.02 1221.12 242.207 1179.61 242.207 1179.61Z" fill="#C0BCBC"/>
<path d="M381.18 1179.61H495.411C495.411 1179.61 488.549 1221.12 438.295 1221.12C388.041 1221.12 381.18 1179.61 381.18 1179.61Z" fill="#C0BCBC"/>
<path d="M520.152 1179.61H634.383C634.383 1179.61 627.522 1221.12 577.268 1221.12C527.014 1221.12 520.152 1179.61 520.152 1179.61Z" fill="#C0BCBC"/>
<path d="M242.207 1331.24H356.438C356.438 1331.24 349.625 1372.75 299.323 1372.75C249.02 1372.75 242.207 1331.24 242.207 1331.24Z" fill="#C0BCBC"/>
<path d="M381.18 1331.24H495.411C495.411 1331.24 488.549 1372.75 438.295 1372.75C388.041 1372.75 381.18 1331.24 381.18 1331.24Z" fill="#C0BCBC"/>
<path d="M520.152 1331.24H634.383C634.383 1331.24 627.522 1372.75 577.268 1372.75C527.014 1372.75 520.152 1331.24 520.152 1331.24Z" fill="#C0BCBC"/>
</svg>
