<svg width="1253" height="3651" viewBox="0 0 1253 3651" fill="none" xmlns="http://www.w3.org/2000/svg">
<rect x="310.824" width="627" height="703" rx="100" fill="#FF383C"/>
<path d="M99.2788 2370.09C75.5545 2358.44 64.0033 2335.74 51.0837 2314.93C1.09373 2234.39 -2.74481 2144.01 1.11151 2053.59C6.62054 1924.18 22.3302 1795.56 39.9946 1667.29C61.6931 1509.55 86.5015 1352.31 121.724 1196.92C130.965 1156.17 141.929 1115.85 154.707 1075.97C184.171 983.956 244.433 923.463 336.718 895.403C395.274 877.596 451.021 852.361 508.653 832.173C515.548 829.757 522.816 827.82 522.781 818.33C522.71 797.413 522.816 776.497 522.568 755.598C522.443 744.634 512.527 744.403 505.614 741.381C452.07 717.995 406.345 685.225 376.205 633.778C371.354 625.479 366.147 616.949 363.623 607.815C358.772 590.239 351.024 576.84 330.96 574.743C328.721 574.512 326.677 572.61 324.509 571.544C278.073 549.01 252.981 405.421 321.559 376.419C335.669 370.447 334.692 360.3 334.017 348.891C330.925 297.071 331.991 245.784 355.502 197.82C401.778 103.403 476.239 49.2723 582.048 42.0395C643.287 37.8456 704.721 38.0766 762.406 63.2048C867.184 108.841 927.908 214.081 919.698 334.799C918.276 355.609 915.682 374.961 941.645 382.994C946.461 384.487 950.3 390.067 953.943 394.314C995.669 442.847 969.048 555.284 909.906 578.439C901.038 581.905 897.288 587.343 894.747 595.197C870.916 668.823 818.883 715.009 748.829 742.234C732.817 748.454 729.139 756.86 729.263 772.498C729.743 826.895 729.156 827.109 780.053 846.088C837.258 867.431 895.067 887.21 951.792 909.744C1023.69 938.302 1068.96 993.001 1093.39 1064.97C1138.3 1197.26 1159.87 1334.81 1182.98 1471.98C1212.64 1648.09 1233.91 1825.27 1249.32 2003.16C1255.52 2074.77 1254.01 2146.16 1240.23 2217.01C1230.66 2266.27 1208.73 2309.65 1177.82 2348.64C1170.39 2358.01 1161.38 2366.33 1152.14 2373.93C1142.46 2381.89 1130.82 2386.6 1118.68 2379.74C1107.7 2373.54 1105.16 2362.31 1105.76 2350.47C1107.43 2317.54 1109.46 2284.65 1110.95 2251.7C1111.54 2238.82 1111.04 2225.76 1105.85 2213.71C1101.94 2204.61 1095.36 2195.21 1085.18 2195.8C1072.65 2196.52 1076.6 2209.41 1075.66 2217.08C1073.72 2233.01 1073.88 2249.18 1072.78 2265.23C1071.91 2278.07 1065.67 2287.01 1051.95 2287.1C1038.34 2287.19 1028.26 2280.67 1027.11 2266.1C1023.45 2219.56 1022.47 2172.91 1024.8 2126.29C1025.54 2111.31 1032.72 2097.59 1047.65 2091.8C1069.49 2083.3 1074.25 2067.15 1074.02 2045.79C1072.94 1941.71 1058.74 1838.97 1042.12 1736.57C1015.84 1574.7 988.507 1412.98 961.549 1251.23C960.127 1242.65 958.048 1234.19 952.166 1225.55C946.426 1266.91 940.401 1308.24 934.981 1349.65C917.974 1479.5 891.033 1608.11 887.905 1739.7C886.75 1788.08 888.35 1836.2 893.041 1884.25C901.678 1972.64 895.671 2061.09 894.623 2149.5C889.451 2587.91 884.191 3026.3 878.344 3464.72C878.06 3485.88 882.858 3499.37 901.465 3512.15C949.144 3544.9 994.709 3580.72 1040.91 3615.61C1048.43 3621.28 1058.76 3627.53 1055.26 3638.5C1051.83 3649.21 1039.63 3649.39 1030.41 3649.57C996.664 3650.24 962.881 3650.07 929.116 3649.62C859.969 3648.73 790.804 3648.27 721.693 3646.1C671.436 3644.52 670.316 3642.96 669.623 3593.45C664.861 3257.22 660.454 2920.99 655.815 2584.75C653.683 2430.3 651.07 2275.87 649.258 2121.42C649.062 2105.07 646.77 2096.94 627.133 2096.79C607.123 2096.65 603.391 2104.01 603.177 2121.96C598.468 2504.05 593.243 2886.13 588.09 3268.2C586.597 3379.2 585.122 3490.22 583.309 3601.21C582.705 3638.07 579.577 3643.99 544.586 3644.95C437.711 3647.92 330.765 3648.72 223.836 3649.8C213.955 3649.91 200.503 3650.46 197.091 3638.23C193.732 3626.2 205.461 3620.09 213.582 3613.97C259.823 3579.12 305.619 3543.67 353.032 3510.49C368.973 3499.33 374.162 3487.89 373.913 3469.12C368.635 3070.15 363.321 2671.15 359.483 2272.16C358.257 2144.31 347.967 2016.11 359.625 1888.68C373.646 1735.33 353.92 1585.54 327.939 1435.45C317.525 1375.29 311.998 1314.28 304.037 1253.7C302.935 1245.35 304.232 1236.25 295.614 1225.77C287.243 1274.39 279.211 1320.09 271.498 1365.85C243.171 1533.91 213.884 1701.83 190.977 1870.73C182.981 1929.67 178.502 1989.08 178.182 2048.72C178.076 2068.25 183.407 2082.9 203.08 2090.77C219.749 2097.43 227.728 2112.09 227.817 2129.12C228.066 2173.33 227.319 2217.56 225.969 2261.76C225.489 2277.28 216.692 2288.01 199.916 2287.23C183.407 2286.45 179.622 2274.38 179.089 2260.09C178.467 2243.23 177.347 2226.36 175.943 2209.55C175.499 2204.29 176.316 2197.15 169.172 2195.65C163.272 2194.43 158.51 2198.57 154.494 2202.55C142.587 2214.35 140.988 2229.92 141.414 2245.15C142.427 2280.49 144.897 2315.78 146.425 2351.13C146.976 2363.86 143.991 2376.24 130.68 2380.83C118.436 2385.04 106.796 2381.98 99.1189 2370.09C126.451 2370.73 132.919 2362.22 123.607 2337.79C121.048 2331.05 118.472 2324.33 115.753 2317.67C111.097 2306.22 104.326 2297.45 90.4111 2303.22C77.3494 2308.64 75.8033 2318.93 81.3123 2330.98C87.2656 2344.04 93.2544 2357.1 99.2255 2370.16L99.2788 2370.09ZM626.013 612.08C651.959 644.263 664.203 643.392 685.742 606.038C693.01 615.065 698.395 625.212 708.88 630.295C729.707 640.371 754.285 629.904 751.104 609.467C747.781 588.053 760.771 589.049 772.304 587.414C834.823 578.581 868.926 539.698 882.183 481.25C896.098 419.922 903.206 357.919 893.948 294.708C881.597 210.295 845.201 141.966 767.364 101.217C690.877 61.1789 610.588 56.0431 529.036 82.4863C449.671 108.219 395.149 160.75 371.265 241.679C345.195 329.983 351.166 418.092 378.587 504.992C392.928 550.45 425.467 576.627 472.027 585.69C478.336 586.916 484.538 588.889 490.882 589.564C499.625 590.488 503.695 593.776 502.38 603.425C500.532 616.949 506.005 627.061 519.44 631.61C534.155 636.586 545.937 631.237 556.404 620.841C560.509 616.753 561.131 608.739 569.075 608.703C586.863 643.286 602.573 644.139 625.995 612.115L626.013 612.08ZM673.64 1196.46C715.97 1210.39 758.941 1219.69 803.688 1214.02C837.951 1209.68 863.808 1192.18 880.335 1161.93C889.132 1145.83 891.939 1129.32 872.622 1117.98C856.486 1108.49 839.923 1114.75 829.474 1134.74C823.165 1146.83 815.204 1157.24 801.804 1159.6C758.034 1167.35 716.876 1157.58 678.953 1135.83C664.399 1127.47 670.103 1109.97 673.018 1098.15C676.11 1085.66 687.856 1095.98 695.214 1097.32C721.461 1102.04 747.763 1105.06 774.384 1103.04C808.629 1100.44 835.676 1084.75 854.389 1055.89C863.808 1041.36 868.499 1026 850.853 1013.58C835.534 1002.79 815.772 1007.29 806.016 1025.7C794.483 1047.49 776.214 1053.92 753.983 1052.89C731.449 1051.84 709.288 1047.82 687.874 1040.43C681.174 1038.12 675.274 1035.99 670.778 1028.79C659.796 1011.25 593.492 1002.74 583.931 1019.68C567.12 1049.41 539.077 1046.31 513.558 1051.15C484.858 1056.59 459.925 1052.71 444.286 1022.27C435.774 1005.71 418.287 1003.56 402.347 1013.28C385.517 1023.51 387.685 1038.33 396.535 1053.12C414.822 1083.65 442.171 1100.07 477.287 1102.95C501.402 1104.92 525.447 1103.18 549.278 1098.45C578.44 1092.68 577.907 1092.84 576.734 1122.02C576.308 1132.54 572.149 1137.85 563.121 1141.99C531.862 1156.35 499.27 1163.58 464.865 1162.11C445.601 1161.29 431.882 1152.78 423.068 1134.72C413.329 1114.77 396.073 1108.62 379.866 1118C360.496 1129.23 362.984 1145.56 371.958 1161.79C393.248 1200.23 427.67 1215.78 470.161 1215.72C500.869 1215.69 531.027 1211.41 560.456 1202.25C565.698 1200.62 574.601 1194.44 575.508 1205.17C576.841 1221 582.083 1238.05 560.509 1248.3C527.775 1263.83 494.081 1271.93 458.059 1271.29C437.871 1270.94 423.085 1262.69 413.56 1243.96C403.359 1223.88 386.388 1217.68 370.572 1227.38C351.521 1239.08 354.916 1255.66 363.499 1271.65C381.857 1305.81 412.121 1321.92 449.689 1325C487.168 1328.07 523.208 1320.27 558.696 1308.9C564.063 1307.17 570.123 1300.4 575.632 1308.36C582.776 1318.69 573.837 1352.88 562.375 1359.56C531.649 1377.49 497.902 1383.64 462.893 1384.32C440.181 1384.76 422.375 1377.23 412.512 1354.73C404.852 1337.23 390.369 1330.92 372.935 1339.04C354.631 1347.55 353.512 1363.4 361.295 1379.96C376.898 1413.2 403.804 1431.96 439.755 1436.64C472.791 1440.94 505.632 1437.6 537.656 1428.46C578.422 1416.84 577.871 1416.55 576.805 1459.51C576.521 1470.95 572.753 1476.94 562.322 1481.15C542.844 1489.04 523.119 1495.88 502.167 1497.89C465.896 1501.34 429.75 1506.96 409.366 1463.19C402.311 1448.03 382.87 1448.67 368.333 1456.95C353.298 1465.51 351.592 1479.23 359.127 1494.46C375.868 1528.3 404.141 1546.8 440.412 1551.7C496.018 1559.22 549.58 1549.43 599.463 1524.18C618.194 1514.7 632.748 1512.68 652.083 1523.66C692.779 1546.78 738.415 1553.98 784.62 1554.19C829.758 1554.4 868.339 1539.65 891.85 1497.59C900.949 1481.31 901.411 1465.87 883.143 1456.52C866.331 1447.92 848.258 1449.38 839.497 1467.88C826.56 1495.21 804.95 1501.11 778.098 1499.94C754.693 1498.91 731.644 1496.38 709.395 1488.56C670.725 1474.99 671.756 1475.02 671.116 1434.81C670.796 1414.14 678.047 1414.69 693.436 1420.96C732.16 1436.76 772.784 1441.77 814.102 1436.35C850.106 1431.62 876.461 1411.92 891.833 1378.67C899.243 1362.66 897.04 1347.83 880.424 1339.55C863.346 1331.04 848.062 1336.11 840.439 1353.81C829.723 1378.7 810.068 1384.99 785.793 1384.34C759.847 1383.63 734.612 1379.13 710.426 1369.69C671.134 1354.36 667.011 1346.59 674.155 1301.79C694.769 1308.65 715.064 1315.97 736.318 1320.24C757.786 1324.54 779.306 1326.21 801.04 1325.16C843.193 1323.15 881.881 1296.57 893.29 1262.3C898.604 1246.33 895.298 1233.05 879.197 1226.23C864.199 1219.87 848.383 1222.42 841.967 1237.96C829.261 1268.7 805.376 1273.29 776.996 1271.13C751.175 1269.18 726.189 1264.22 702.517 1252.99C669.499 1237.32 668.61 1236.21 673.604 1196.5L673.64 1196.46ZM475.777 2083.75C491.539 2084.07 506.112 2079.64 519.12 2071.2C539.308 2058.09 558.821 2043.96 578.902 2030.72C610.339 2009.98 642.114 2009.73 673.551 2030.79C686.879 2039.73 699.728 2049.4 712.896 2058.57C726.1 2067.77 739.677 2076.53 755.298 2080.99C798.428 2093.33 829.101 2071.68 830.736 2027.26C831.607 2003.41 840.261 1981.9 847.814 1959.9C851.172 1950.09 855.366 1940.16 856.344 1930.01C861.817 1873.54 809.908 1837.43 751.512 1857.65C728.659 1865.56 706.018 1873.13 681.85 1875.65C672.68 1876.61 665.98 1876.08 666.602 1864.05C667.295 1850.75 660.667 1840.7 647.232 1841.94C625.96 1843.89 602.058 1831.6 583.789 1852.05C582.794 1853.17 581.941 1855.05 582.101 1856.48C584.926 1883.2 567.102 1876.41 552.636 1874.55C534.972 1872.29 518.587 1866.05 502.309 1858.86C471.76 1845.37 442.083 1847.15 417.327 1870.98C393.337 1894.1 390.706 1922.76 402.009 1953.22C412.067 1980.3 421.486 2007.09 422.463 2036.85C423.459 2066.94 444.908 2083.77 475.759 2083.73L475.777 2083.75ZM743.107 2809.18C717.694 2811.45 705.787 2823.08 701.327 2842.27C696.475 2863.15 705.859 2885.4 725.958 2891.6C741.49 2896.38 743.071 2904.59 743.107 2917.76C743.444 3052.82 744.066 3187.88 744.884 3322.94C744.955 3335.66 744.368 3343.96 728.659 3349.35C704.934 3357.48 696.973 3388.18 709.253 3410.3C721.852 3433.03 744.777 3437.35 768.235 3419.99C777.512 3413.13 783.66 3412.26 793.488 3419.29C817.55 3436.51 839.888 3432.14 852.452 3409.45C864.892 3387 857.073 3356.76 833.046 3348.63C816.288 3342.97 815.879 3333.81 815.808 3320.22C814.991 3186.78 813.906 3053.33 812.467 2919.89C812.307 2905.37 813.302 2895.87 830.434 2889.77C850.675 2882.56 858.085 2863.15 853.696 2842.11C849.538 2822.17 835.001 2803.65 815.701 2809.85C788.405 2818.63 764.165 2831.93 743.125 2809.18H743.107ZM504.868 3431.07C530.423 3429.85 542.489 3418.55 547.536 3399.41C552.921 3378.99 544.124 3355.6 524.256 3349.54C506.858 3344.25 507.267 3334.24 507.356 3320.93C508.209 3187.47 508.955 3054.01 509.275 2920.55C509.311 2905.76 511.159 2896.59 528.183 2890.59C551.659 2882.31 558.927 2851.14 546.203 2829.1C534.066 2808.06 510.43 2803.39 488.554 2819.72C477.856 2827.7 471.423 2826.42 461.418 2818.9C439.435 2802.39 415.888 2806.94 403.999 2828.23C390.795 2851.88 398.899 2882.95 424.063 2890.68C440.572 2895.76 440.305 2904.27 440.181 2916.76C438.848 3051.82 437.64 3186.88 436.734 3321.94C436.645 3334.88 435.881 3343.48 420.029 3348.32C400.019 3354.41 390.991 3376.75 396.056 3397.79C400.641 3416.89 413.009 3433.69 432.433 3428.82C459.409 3422.06 484.449 3406.43 504.886 3431.06L504.868 3431.07ZM737.74 2401.65C738.557 2401.65 739.357 2401.65 740.174 2401.65C740.174 2463.5 739.997 2525.36 740.334 2587.2C740.405 2599.27 739.286 2606.89 724.838 2611.65C700.936 2619.54 692.193 2646.11 703.513 2666.74C715.259 2688.18 739.695 2693.92 761.073 2678.38C771.985 2670.46 780.053 2668.89 790.697 2677.9C803.617 2688.85 818.42 2689.86 833.259 2681.48C847.174 2673.6 853.82 2660.76 852.701 2645.31C851.439 2627.95 842.625 2613.73 824.871 2610.13C811.81 2607.46 810.726 2600.55 810.655 2590.01C809.624 2464.71 808.504 2339.42 806.905 2214.12C806.745 2201.89 809.499 2196.42 822.472 2192.63C846.161 2185.75 855.402 2159.81 844.455 2138.07C834.201 2117.69 808.86 2110.07 789.169 2124.59C775.468 2134.7 766.973 2133.61 753.627 2124.34C734.061 2110.74 708.151 2119.45 698.768 2139.89C689.011 2161.11 697.862 2186.34 720.644 2192.72C736.336 2197.13 738.042 2205.2 737.953 2218.49C737.527 2279.53 737.775 2340.58 737.775 2401.62L737.74 2401.65ZM509.844 2687.57C534.297 2686.1 547.998 2676.38 552.157 2656.56C556.51 2635.86 548.691 2618.94 528.681 2611.96C515.708 2607.44 511.603 2601.79 511.745 2588.37C513.025 2464.55 513.789 2340.72 514.215 2216.91C514.251 2203.99 516.863 2197.23 530.938 2193.11C554.076 2186.34 563.193 2162.44 553.863 2140.63C545.03 2119.95 518.854 2110.42 499.394 2124.11C484.858 2134.34 475.67 2133.61 461.649 2123.61C443.309 2110.51 417.807 2118.65 408.015 2137.6C397.033 2158.87 406.096 2185.67 429.625 2192.38C444.695 2196.68 445.335 2204.61 445.21 2216.68C444.02 2339.69 443.025 2462.72 442.26 2585.73C442.171 2598.77 440.697 2607.05 424.809 2611.35C404.124 2616.95 397.246 2635.08 401.067 2655.58C404.781 2675.54 419.318 2690.33 438.102 2685.46C464.581 2678.58 489.052 2666.03 509.808 2687.55L509.844 2687.57ZM94.9249 1477.46C94.7827 1508.04 115.895 1522.17 141.29 1509.91C149.784 1505.8 154.458 1504.79 161.531 1512.87C177.862 1531.53 194.016 1533.01 208.589 1519.34C224.405 1504.49 227.426 1472.96 210.597 1460.96C195.9 1450.48 197.002 1439.89 199.988 1426.19C217.759 1344.55 235.441 1262.89 252.981 1181.2C255.593 1169.06 258.685 1161.04 273.951 1157.08C301.052 1150.06 310.381 1112.23 292.504 1091.93C276.687 1073.97 260.676 1090.15 244.788 1090.03C229.878 1089.92 222.184 1060.37 198.584 1070.54C172.922 1081.59 165.778 1121.06 188.134 1139.15C198.175 1147.27 200.094 1154.04 197.588 1165.34C178.698 1250.86 160.038 1336.41 141.681 1422.03C139.619 1431.68 136.669 1437.12 125.598 1439.21C104.148 1443.28 96.5243 1459.77 94.9249 1477.47V1477.46ZM978.484 1081.94C963.486 1083.21 954.973 1093.89 951.846 1109.44C947.652 1130.23 958.741 1153.31 978.573 1157.26C994.105 1160.33 997.091 1168.9 999.685 1181.04C1017.23 1263.48 1034.84 1345.92 1052.73 1428.27C1055.58 1441.31 1056.71 1450.34 1042.62 1460.36C1025.42 1472.6 1027.6 1493.06 1037.36 1510.63C1045.62 1525.51 1061.96 1535.92 1075.3 1525.67C1092.73 1512.29 1105.99 1503.51 1127.94 1515.27C1135.79 1519.48 1145.87 1510.69 1151.45 1502.03C1165.15 1480.71 1154.86 1446.45 1130.52 1440.46C1115.57 1436.78 1112.19 1429.44 1109.47 1416.55C1092.22 1334.88 1074.38 1253.33 1056.22 1171.87C1053.07 1157.79 1051.61 1147.68 1066.31 1137.12C1083.16 1125.02 1080.7 1094.1 1065.28 1078.59C1050.32 1063.55 1037 1064.92 1017.07 1085.46C1010.53 1092.22 1005.6 1092.66 998.655 1087.7C993.305 1083.88 987.263 1081.86 978.484 1081.94ZM203.808 1620.23C203.311 1607.77 200.147 1595.65 188.383 1587.49C171.181 1575.55 158.083 1594.55 144.364 1593.75C130.023 1592.91 121.048 1568.73 100.718 1577.28C86.9635 1583.07 79.3575 1594.03 77.5093 1608.64C75.4834 1624.8 78.1846 1640.38 93.9119 1648.11C104.539 1653.32 106.743 1658.45 105.25 1669.9C94.0897 1755.96 83.6759 1842.13 73.4398 1928.31C71.9648 1940.76 71.5915 1950.63 54.9756 1953.74C39.2838 1956.67 32.8328 1971.37 31.2867 1986.72C29.8473 2001.02 33.206 2013.96 45.5036 2023.08C62.3861 2035.59 75.3768 2018.58 89.718 2017.8C104.166 2017 112.447 2043.36 133.168 2034.75C147.012 2029 154.796 2018.53 156.946 2003.89C159.167 1988.75 157.87 1972.41 143.76 1965.32C128.157 1957.47 129.419 1947.23 131.054 1933.96C141.432 1849.4 151.561 1764.83 161.264 1680.19C162.615 1668.44 166.276 1662.15 178.662 1658.6C196.185 1653.58 202.529 1638.51 203.808 1620.23ZM1094.49 1995.55C1094.39 2016.88 1112.28 2041.56 1127 2035.25C1150.65 2025.12 1171.16 2019.68 1197.46 2026.21C1211.68 2029.73 1220.24 2010.66 1221.04 1995.13C1222.02 1976.06 1216.35 1958.18 1196.09 1953.49C1182.18 1950.27 1180.38 1942.95 1179.08 1931.91C1169.2 1847.31 1159.34 1762.68 1148.73 1678.14C1146.94 1663.8 1146.33 1654.14 1162.01 1645.45C1179.64 1635.65 1179.85 1603.52 1165.63 1587.19C1152.18 1571.73 1136.42 1571.34 1118.29 1588.86C1109.16 1597.69 1103.89 1594.16 1095.83 1588.86C1079.53 1578.13 1064.99 1581.56 1054.49 1597.8C1040.91 1618.86 1049.76 1649.37 1073.4 1658.49C1084.72 1662.86 1089.64 1667.66 1091.03 1679.92C1100.5 1763.76 1110.7 1847.54 1120.99 1931.29C1122.75 1945.58 1127.12 1958.69 1107.68 1966.23C1097 1970.37 1094.81 1983.84 1094.51 1995.59L1094.49 1995.55ZM625.018 907.682C532.679 909.371 440.146 908.766 349.389 929.985C334.497 933.468 319.995 939.297 322.945 958.063C325.966 977.345 341.854 979.833 358.097 979.211C362.877 979.033 367.622 977.753 372.331 976.776C428.399 965.314 485.195 960.64 542.24 958.561C559.212 957.939 578.404 952.767 582.883 979.068C584.091 986.124 592.817 989.251 600.529 989.358C615.795 989.571 631.06 989.553 646.325 989.429C657.201 989.34 666.229 984.027 668.077 973.791C671.152 956.766 682.205 957.832 694.681 958.223C754.178 960.125 813.373 964.585 871.858 976.261C883.622 978.606 895.44 981.805 907.471 977.238C917.263 973.506 924.105 967.126 924.745 956.251C925.385 945.286 919.342 937.929 909.604 933.948C903.704 931.549 897.359 930.145 891.104 928.705C803.422 908.695 714.104 909.548 624.982 907.665L625.018 907.682ZM575.757 679.645C561.966 660.506 546.061 650.11 523.581 667.721C520.968 669.764 514.304 667.65 509.915 666.228C492.428 660.577 477.82 650.678 470.57 633.245C464.403 618.424 453.189 611.085 438.813 606.304C426.48 602.199 420.971 602.768 423.903 618.619C431.171 658 454.451 683.697 490.527 697.629C581.283 732.674 672.484 732.389 763.188 697.363C799.476 683.341 821.992 656.774 829.207 617.766C831.429 605.789 830.096 600.671 816.412 605.451C801.52 610.658 789.685 617.713 781.954 632.907C766.085 664.131 747.549 670.902 714.78 660.648C702.535 656.809 692.974 661.483 684.746 670.529C681.548 674.047 678.26 682.933 672.485 675.273C653.772 650.518 639.519 664.415 626.12 681.013C606.181 656.258 597.224 656.116 575.739 679.645H575.757ZM498.683 3553.96C494.774 3553.96 492.357 3553.96 489.94 3553.96C459.694 3554.16 445.424 3566.37 445.815 3591.76C446.188 3616.41 459.836 3628.03 488.803 3628.24C496.835 3628.3 504.903 3627.85 512.9 3628.31C530.689 3629.33 542.151 3620.99 547.714 3604.68C553.063 3588.93 549.953 3574.61 538.26 3562.4C526.477 3550.09 511.194 3555.26 498.683 3553.98V3553.96ZM757.075 3553.98C753.059 3553.98 749.042 3553.94 745.026 3553.98C717.339 3554.28 702.198 3567.36 702.144 3591C702.109 3614.74 717.25 3628 744.813 3628.23C753.645 3628.3 762.513 3628.49 771.327 3628.12C793.808 3627.18 806.514 3613.71 806.496 3591.23C806.496 3564.59 792.404 3553.98 757.075 3553.98ZM775.965 2706.11C754 2706.73 737.704 2725.07 738.824 2747.96C739.855 2769.27 757.555 2786.31 777.974 2785.69C798.943 2785.05 816.999 2764.88 815.719 2743.55C814.458 2722.79 796.153 2705.52 775.983 2706.09L775.965 2706.11ZM513.327 2746.2C513.558 2724.16 498.115 2707.1 477.056 2706.16C456.033 2705.2 436.965 2723.75 436.734 2745.38C436.503 2766.55 455.837 2786.4 476.239 2785.95C496.622 2785.49 513.114 2767.83 513.345 2746.22L513.327 2746.2ZM78.1668 2125.85C78.1668 2125.71 78.1668 2125.56 78.1846 2125.42C83.7825 2125.42 89.3981 2125.58 94.996 2125.39C114.153 2124.71 125.793 2114.3 125.544 2095.64C125.313 2078.31 114.26 2067.79 96.1155 2067.35C82.5385 2067.01 68.7481 2066.32 55.3843 2068.16C39.8524 2070.31 31.7665 2081.44 31.9087 2096.9C32.0509 2111.37 40.2256 2121.14 54.3003 2124.34C61.9774 2126.08 70.2054 2125.42 78.1846 2125.85H78.1668ZM922.488 3594.03C922.417 3581.88 916.623 3571.57 901.98 3567.75C890.393 3564.73 878.753 3561.89 867.095 3559.1C848.24 3554.58 837.631 3564.05 833.721 3581.04C829.758 3598.28 836.778 3610.79 854.425 3615.77C865.176 3618.81 876.052 3621.46 886.999 3623.75C906.92 3627.91 921.706 3616.27 922.47 3594.03H922.488ZM420.349 3586.87C418.856 3575.14 414.182 3564.43 401.654 3559.33C390.44 3554.76 343.56 3567.16 336.416 3576.55C328.401 3587.07 327.264 3598.53 333.892 3610.22C348.909 3636.7 369.861 3620.92 389.107 3617.95C406.754 3615.24 419.176 3607.45 420.349 3586.87ZM1165.81 2125.01C1165.81 2125.16 1165.81 2125.3 1165.81 2125.44C1171.41 2125.44 1177.02 2125.72 1182.6 2125.39C1201.33 2124.27 1213.33 2115.01 1212.88 2095.55C1212.48 2077.56 1201.19 2068.09 1183.44 2067.38C1170.66 2066.87 1157.72 2066.35 1145.07 2067.81C1128.51 2069.73 1119.16 2080.32 1119.46 2097.11C1119.73 2112.75 1128.93 2122.33 1144.25 2124.85C1151.25 2126.01 1158.61 2125.05 1165.81 2125.05V2125.01ZM275.284 976.812C255.078 977.202 239.102 993.481 239.066 1013.72C239.031 1034.85 256.517 1051.38 277.825 1050.35C297.87 1049.39 313.989 1032.03 313.136 1012.32C312.283 992.308 295.329 976.421 275.284 976.794V976.812ZM1013.24 1013.86C1013.3 993.179 997.357 977.025 976.761 976.883C955.951 976.741 940.152 992.415 939.974 1013.4C939.797 1034.19 955.613 1050.28 976.316 1050.37C996.949 1050.45 1013.19 1034.41 1013.24 1013.86ZM626.564 803.1C639.43 800.701 659.831 810.493 665.5 788.226C668.877 775.004 671.365 758.264 652.19 751.866C627.026 743.478 586.544 751.706 582.065 765.781C581.586 767.292 581.532 768.944 581.283 770.526C577.303 796.312 586.366 803.118 626.546 803.1H626.564ZM622.779 1603.75C657.415 1603.75 663.812 1602.23 665.785 1588.76C667.811 1574.93 671.116 1558.78 651.781 1552.77C625.498 1544.59 586.277 1552.77 581.941 1567.04C581.479 1568.55 581.479 1570.2 581.248 1571.78C577.658 1596.98 586.419 1603.74 622.797 1603.75H622.779ZM623.152 1696.55C610.179 1698.94 590.862 1689.45 582.865 1709.99C578.867 1720.26 577.054 1734.48 586.775 1741.59C606.483 1756 630.065 1747.66 651.977 1747.27C661.662 1747.1 665.856 1738.48 666.798 1728.36C669.215 1702.19 662.124 1696.54 623.152 1696.54V1696.55ZM622.459 1624.28C609.628 1626.79 590.116 1617.08 582.634 1638.14C578.991 1648.4 576.947 1662.63 587.219 1669.52C607.229 1682.92 630.58 1675.9 652.492 1674.5C662.231 1673.88 666.069 1665.3 666.851 1655.2C668.841 1629.29 662.302 1624.3 622.459 1624.3V1624.28ZM625.142 1820.92C638.293 1818.18 659.618 1828.72 665.607 1805.33C668.984 1792.16 671.187 1775.49 651.408 1769.91C623.383 1762.01 585.939 1769.82 581.781 1784.34C581.354 1785.85 581.408 1787.51 581.195 1789.09C577.943 1814.27 586.597 1820.86 625.142 1820.92ZM625.089 885.753C637.866 883.034 657.521 893.377 665.163 872.407C668.841 862.313 671.187 847.812 661.413 840.686C641.705 826.309 618.123 834.039 596.193 835.017C586.526 835.443 582.279 844.187 581.123 854.085C578.209 879.462 586.401 885.789 625.071 885.771L625.089 885.753ZM778.596 3529.15C798.019 3529.79 815.293 3512.73 815.382 3492.81C815.47 3473.81 799.832 3457.55 780.888 3456.95C761.731 3456.35 745.541 3471.22 744.351 3490.54C743.107 3510.51 759.065 3528.51 778.596 3529.15ZM507.907 3492.97C508.066 3473.23 493.423 3457.61 474.106 3456.91C453.936 3456.19 437.427 3472.3 437.409 3492.76C437.409 3511.84 452.994 3528.55 471.458 3529.21C491.149 3529.9 507.729 3513.41 507.907 3492.97ZM79.8195 2195.23C96.9686 2195.71 110.972 2190.32 111.061 2170.86C111.15 2153.34 98.9412 2146.3 82.3608 2145.91C64.9984 2145.5 51.5813 2151.4 51.297 2170.67C51.0482 2188.51 63.0081 2195.48 79.8017 2195.24L79.8195 2195.23ZM1136.26 2371.53C1139.22 2370.06 1144.87 2369.1 1147.24 2365.77C1156.99 2352.06 1161.88 2335.99 1166.13 2319.93C1167.59 2314.4 1163.77 2309.19 1159.04 2305.71C1152.87 2301.18 1146.37 2299.36 1139.15 2303.75C1131.19 2308.61 1114.33 2348.61 1117.05 2357.24C1119.73 2365.7 1126.11 2369.88 1136.26 2371.53ZM101.749 2249.62H101.927C101.927 2245.61 101.82 2241.61 101.945 2237.59C102.353 2225.01 98.9056 2214.33 84.4755 2213.76C70.0276 2213.19 65.6027 2223.46 65.4072 2236.15C65.2473 2246.57 64.572 2257.05 65.4428 2267.39C66.3491 2278.16 72.3379 2285.57 84.0668 2285.25C95.7602 2284.93 101.003 2277.45 101.678 2266.47C102.033 2260.87 101.731 2255.26 101.731 2249.64L101.749 2249.62ZM1164.9 2195.26C1181.16 2195.1 1193.8 2189.31 1193.71 2171.06C1193.62 2151.69 1180.42 2145.72 1163.11 2145.95C1146.74 2146.18 1134.51 2152.33 1134.37 2170.44C1134.21 2190.32 1147.72 2195.51 1164.9 2195.26ZM1178.91 2249.13C1178.91 2249.13 1179 2249.13 1179.05 2249.13C1179.05 2245.13 1178.94 2241.11 1179.07 2237.11C1179.44 2224.53 1176.08 2213.87 1161.44 2213.73C1147.03 2213.58 1142.83 2223.73 1143.08 2236.54C1143.29 2246.94 1143.04 2257.37 1143.61 2267.75C1144.25 2279.16 1150.77 2285.52 1162.2 2285.22C1172.6 2284.93 1178.11 2278.47 1178.82 2268.32C1179.26 2261.96 1178.91 2255.52 1178.91 2249.13ZM1030.8 2233.74C1031.99 2242.09 1028.56 2252.54 1036.4 2260.04C1043.15 2266.51 1050.69 2266.17 1057.37 2259.2C1064.75 2251.51 1064.46 2213.73 1056.68 2207.15C1049.69 2201.23 1041.87 2200.98 1035.39 2207.72C1028.56 2214.81 1031.58 2224.26 1030.8 2233.72V2233.74ZM1067.96 2150.19C1069.42 2137.6 1071 2125.76 1056.75 2123.73C1041.38 2121.55 1038.16 2133.33 1038.16 2145.2C1038.16 2158.74 1025.24 2179.73 1047.77 2182.95C1072.78 2186.52 1063.79 2161.53 1067.96 2150.21V2150.19ZM176.565 2146.27C177.56 2154.21 178.378 2162.21 179.604 2170.12C181.008 2179.25 186.108 2184.97 195.811 2184.05C205.55 2183.12 209.53 2176.48 208.926 2167.27C208.34 2158.49 207.114 2149.75 206.012 2141.02C204.661 2130.49 200.663 2121.3 188.116 2123.59C175.854 2125.83 175.019 2135.92 176.583 2146.27H176.565ZM303.948 3604.88C302.224 3590.85 295.009 3582.43 280.384 3583C266.896 3583.53 259.858 3591.88 259.805 3604.88C259.751 3618.86 266.931 3628.07 281.645 3628.1C296.484 3628.15 302.491 3618.38 303.948 3604.86V3604.88ZM992.968 3605.57C991.493 3592.01 985.433 3582.66 970.363 3583.02C957.017 3583.34 949.18 3591.24 948.718 3604.08C948.22 3617.83 955.471 3627.32 969.99 3628.1C985.024 3628.9 991.12 3619.16 992.986 3605.59L992.968 3605.57ZM213.867 2239.78C213.867 2233.29 213.92 2231.69 213.867 2230.11C213.44 2218.56 216.639 2204.47 198.797 2203.33C187.761 2202.62 182.465 2210.33 183.78 2220.18C185.788 2235.25 174.06 2254.87 195.971 2263.86C202.422 2266.51 209.086 2261.97 211.361 2255.81C213.76 2249.36 213.582 2241.95 213.884 2239.76L213.867 2239.78Z" fill="#FF383C"/>
<path d="M99.277 2370.09C93.3059 2357.03 87.3348 2343.97 81.3637 2330.91C75.8725 2318.86 77.4008 2308.59 90.4625 2303.15C104.359 2297.37 111.148 2306.15 115.804 2317.6C118.523 2324.26 121.082 2331 123.659 2337.71C132.971 2362.15 126.502 2370.66 99.1704 2370.02L99.2948 2370.09H99.277Z" fill="#151515"/>
<path d="M626.014 612.08C602.592 644.104 586.864 643.251 569.093 608.668C561.15 608.704 560.528 616.719 556.423 620.806C545.973 631.22 534.173 636.551 519.459 631.575C506.024 627.026 500.55 616.932 502.398 603.39C503.714 593.741 499.626 590.471 490.901 589.529C484.556 588.854 478.337 586.899 472.046 585.655C425.503 576.592 392.947 550.397 378.605 504.957C351.185 418.057 345.213 329.948 371.283 241.644C395.168 160.715 449.689 108.184 529.055 82.4515C610.624 56.0082 690.896 61.1618 767.383 101.182C845.22 141.913 881.615 210.243 893.966 294.673C903.225 357.884 896.116 419.887 882.202 481.215C868.927 539.664 834.842 578.547 772.323 587.379C760.79 589.014 747.799 588.019 751.122 609.433C754.303 629.869 729.726 640.354 708.898 630.26C698.413 625.178 693.029 615.03 685.76 606.003C664.204 643.375 651.96 644.228 626.032 612.045L626.014 612.08ZM415.605 459.357C414.698 506.539 445.034 541.174 487.631 541.636C529.162 542.081 563.336 506.396 564.046 461.862C564.775 415.871 535.453 384.292 491.221 383.403C448.09 382.55 416.475 414.307 415.605 459.374V459.357ZM837.223 462.431C837.49 416.831 807.474 384.132 764.699 383.421C718.832 382.657 689.67 412.903 689.741 461.187C689.812 506.805 722.12 541.547 764.539 541.654C806.088 541.743 836.957 508.12 837.223 462.431ZM626.796 485.409C606.715 486.226 580.289 527.899 587.7 545.244C591.751 554.716 600.015 560.758 608.563 555.373C620.398 547.927 628.875 545.759 640.835 555.533C648.139 561.504 657.718 557.648 663.013 548.389C670.69 534.972 664.026 523.51 657.629 512.421C650.289 499.714 640.497 489.39 626.796 485.409Z" fill="#151515"/>
<path d="M673.641 1196.44C668.647 1236.16 669.536 1237.26 702.555 1252.94C726.226 1264.17 751.212 1269.13 777.033 1271.08C805.414 1273.23 829.298 1268.65 842.004 1237.9C848.437 1222.35 864.236 1219.81 879.235 1226.17C895.335 1233 898.64 1246.27 893.327 1262.25C881.918 1296.53 843.23 1323.1 801.077 1325.11C779.343 1326.15 757.823 1324.48 736.355 1320.18C715.101 1315.92 694.806 1308.58 674.192 1301.74C667.03 1346.54 671.153 1354.3 710.463 1369.64C734.649 1379.08 759.884 1383.57 785.83 1384.28C810.123 1384.94 829.76 1378.65 840.476 1353.75C848.1 1336.05 863.383 1331.01 880.461 1339.5C897.094 1347.78 899.28 1362.58 891.87 1378.61C876.498 1411.86 850.143 1431.57 814.139 1436.3C772.821 1441.72 732.197 1436.71 693.474 1420.91C678.084 1414.64 670.833 1414.08 671.153 1434.75C671.793 1474.97 670.762 1474.93 709.432 1488.51C731.681 1496.33 754.73 1498.85 778.135 1499.88C804.987 1501.06 826.597 1495.17 839.534 1467.82C848.295 1449.32 866.368 1447.87 883.18 1456.47C901.448 1465.82 900.986 1481.26 891.888 1497.54C868.376 1539.58 829.778 1554.35 784.657 1554.14C738.434 1553.92 692.798 1546.73 652.12 1523.61C632.785 1512.62 618.231 1514.65 599.5 1524.12C549.617 1549.38 496.055 1559.17 440.449 1551.65C404.178 1546.74 375.905 1528.25 359.164 1494.41C351.629 1479.18 353.318 1465.46 368.37 1456.89C382.907 1448.61 402.348 1447.99 409.403 1463.13C429.787 1506.92 465.933 1501.29 502.204 1497.84C523.156 1495.85 542.882 1489.01 562.359 1481.1C572.772 1476.87 576.558 1470.88 576.842 1459.45C577.908 1416.48 578.459 1416.79 537.692 1428.41C505.669 1437.54 472.828 1440.88 439.792 1436.58C403.859 1431.91 376.935 1413.14 361.332 1379.91C353.549 1363.35 354.668 1347.5 372.972 1338.98C390.406 1330.88 404.889 1337.17 412.549 1354.68C422.394 1377.17 440.218 1384.69 462.93 1384.26C497.939 1383.59 531.686 1377.44 562.412 1359.51C573.857 1352.83 582.795 1318.64 575.669 1308.31C570.16 1300.33 564.1 1307.12 558.733 1308.84C523.262 1320.24 487.205 1328.02 449.726 1324.95C412.14 1321.87 381.893 1305.73 363.536 1271.6C354.935 1255.6 351.541 1239.02 370.609 1227.33C386.425 1217.63 403.397 1223.85 413.597 1243.91C423.105 1262.64 437.908 1270.89 458.096 1271.24C494.118 1271.88 527.794 1263.78 560.546 1248.25C582.138 1237.99 576.895 1220.95 575.545 1205.12C574.638 1194.38 565.735 1200.58 560.493 1202.2C531.064 1211.34 500.906 1215.64 470.198 1215.67C427.707 1215.71 393.285 1200.17 371.995 1161.74C363.021 1145.51 360.533 1129.18 379.903 1117.95C396.093 1108.55 413.366 1114.71 423.105 1134.67C431.919 1152.71 445.638 1161.22 464.902 1162.06C499.307 1163.53 531.899 1156.3 563.158 1141.94C572.186 1137.8 576.344 1132.49 576.771 1121.96C577.944 1092.78 578.477 1092.62 549.315 1098.4C525.484 1103.13 501.422 1104.87 477.324 1102.9C442.208 1100.02 414.859 1083.6 396.573 1053.07C387.723 1038.3 385.554 1023.48 402.383 1013.22C418.324 1003.52 435.811 1005.65 444.323 1022.22C459.98 1052.66 484.912 1056.53 513.595 1051.09C539.114 1046.26 567.175 1049.35 583.968 1019.62C593.529 1002.69 659.833 1011.2 670.815 1028.74C675.329 1035.94 681.212 1038.07 687.911 1040.38C709.325 1047.79 731.504 1051.79 754.02 1052.84C776.234 1053.87 794.502 1047.45 806.053 1025.65C815.81 1007.24 835.571 1002.76 850.89 1013.53C868.536 1025.95 863.845 1041.3 854.426 1055.84C835.713 1084.7 808.666 1100.39 774.421 1102.99C747.8 1105.01 721.499 1101.99 695.251 1097.26C687.911 1095.95 676.147 1085.61 673.055 1098.1C670.14 1109.92 664.436 1127.42 678.99 1135.77C716.914 1157.52 758.071 1167.3 801.841 1159.55C815.223 1157.19 823.202 1146.77 829.511 1134.69C839.943 1114.7 856.505 1108.46 872.659 1117.93C891.976 1129.29 889.169 1145.8 880.372 1161.88C863.845 1192.12 837.988 1209.65 803.725 1213.97C758.978 1219.62 716.007 1210.34 673.677 1196.41L673.641 1196.44Z" fill="#151515"/>
<path d="M475.778 2083.77C444.927 2083.77 423.46 2066.96 422.464 2036.87C421.487 2007.1 412.05 1980.3 402.01 1953.24C390.707 1922.78 393.338 1894.12 417.328 1871C442.066 1847.15 471.761 1845.39 502.31 1858.88C518.588 1866.07 534.955 1872.29 552.637 1874.57C567.121 1876.42 584.927 1883.22 582.102 1856.49C581.96 1855.07 582.795 1853.19 583.79 1852.07C602.059 1831.61 625.961 1843.91 647.233 1841.96C660.668 1840.71 667.279 1850.79 666.603 1864.06C665.981 1876.1 672.681 1876.63 681.851 1875.67C706.002 1873.15 728.66 1865.58 751.513 1857.67C809.909 1837.44 861.818 1873.55 856.345 1930.03C855.368 1940.18 851.173 1950.11 847.815 1959.92C840.28 1981.9 831.625 2003.42 830.737 2027.27C829.102 2071.68 798.429 2093.35 755.299 2081.01C739.696 2076.55 726.119 2067.79 712.897 2058.59C699.729 2049.42 686.88 2039.73 673.552 2030.81C642.115 2009.75 610.358 2010 578.903 2030.74C558.804 2044 539.291 2058.12 519.121 2071.22C506.113 2079.68 491.523 2084.09 475.778 2083.8V2083.77ZM807.794 1924.61C806.479 1908.56 799.229 1896.67 781.795 1895.89C764.593 1895.13 754.535 1905.33 753.735 1922.23C752.882 1939.96 761.678 1952.1 780.285 1952.51C797.771 1952.88 805.608 1941.28 807.794 1924.61ZM499.253 1924.41C497.76 1907.02 489.355 1895.91 472.134 1895.86C455.074 1895.8 445.14 1906.4 445.105 1923.37C445.069 1941.08 454.275 1952.9 472.988 1952.46C490.492 1952.03 497.76 1940.07 499.235 1924.4L499.253 1924.41Z" fill="#151515"/>
<path d="M743.106 2809.16C764.147 2831.89 788.387 2818.62 815.683 2809.84C834.983 2803.63 849.52 2822.15 853.678 2842.09C858.067 2863.15 850.675 2882.54 830.416 2889.75C813.284 2895.85 812.307 2905.36 812.449 2919.87C813.906 3053.32 814.972 3186.76 815.79 3320.2C815.879 3333.8 816.27 3342.95 833.028 3348.62C857.055 3356.74 864.856 3386.99 852.434 3409.43C839.87 3432.12 817.532 3436.5 793.47 3419.28C783.642 3412.24 777.476 3413.11 768.217 3419.97C744.759 3437.35 721.852 3433.01 709.235 3410.28C696.955 3388.16 704.916 3357.47 728.641 3349.33C744.35 3343.94 744.937 3335.64 744.866 3322.92C744.048 3187.86 743.426 3052.8 743.089 2917.74C743.053 2904.59 741.471 2896.38 725.94 2891.58C705.84 2885.38 696.457 2863.13 701.309 2842.25C705.769 2823.06 717.676 2811.44 743.089 2809.16H743.106Z" fill="#151515"/>
<path d="M504.867 3431.08C484.431 3406.44 459.391 3422.08 432.415 3428.84C412.991 3433.71 400.605 3416.89 396.037 3397.81C390.99 3376.77 400 3354.43 420.011 3348.33C435.862 3343.5 436.627 3334.9 436.715 3321.96C437.622 3186.9 438.83 3051.84 440.163 2916.78C440.287 2904.29 440.554 2895.78 424.045 2890.69C398.881 2882.96 390.777 2851.9 403.981 2828.25C415.87 2806.96 439.417 2802.41 461.399 2818.92C471.405 2826.42 477.838 2827.71 488.536 2819.74C510.412 2803.39 534.047 2808.08 546.185 2829.12C558.909 2851.17 551.623 2882.32 528.165 2890.61C511.141 2896.61 509.292 2905.78 509.257 2920.57C508.937 3054.03 508.191 3187.49 507.338 3320.95C507.249 3334.26 506.84 3344.25 524.238 3349.56C544.124 3355.62 552.903 3379.02 547.518 3399.43C542.471 3418.56 530.422 3429.87 504.85 3431.09L504.867 3431.08Z" fill="#151515"/>
<path d="M737.742 2401.65C737.742 2340.61 737.511 2279.57 737.919 2218.52C738.008 2205.23 736.32 2197.16 720.61 2192.76C697.828 2186.38 688.978 2161.14 698.734 2139.92C708.117 2119.49 734.045 2110.8 753.593 2124.37C766.939 2133.65 775.434 2134.73 789.135 2124.62C808.826 2110.09 834.168 2117.73 844.421 2138.11C855.351 2159.84 846.127 2185.77 822.439 2192.67C809.466 2196.43 806.711 2201.91 806.871 2214.15C808.453 2339.44 809.59 2464.74 810.621 2590.04C810.71 2600.58 811.794 2607.51 824.838 2610.16C842.573 2613.77 851.388 2627.99 852.667 2645.35C853.804 2660.79 847.158 2673.62 833.226 2681.51C818.387 2689.92 803.584 2688.9 790.664 2677.94C780.019 2668.93 771.951 2670.48 761.04 2678.42C739.679 2693.95 715.243 2688.21 703.479 2666.78C692.159 2646.15 700.902 2619.58 724.804 2611.69C739.252 2606.91 740.372 2599.3 740.301 2587.24C739.981 2525.39 740.141 2463.53 740.141 2401.69C739.323 2401.69 738.524 2401.69 737.706 2401.69L737.742 2401.65Z" fill="#151515"/>
<path d="M509.845 2687.57C489.106 2666.07 464.636 2678.6 438.139 2685.48C419.355 2690.36 404.818 2675.58 401.104 2655.6C397.283 2635.11 404.161 2616.97 424.846 2611.37C440.733 2607.07 442.226 2598.79 442.297 2585.75C443.062 2462.72 444.039 2339.71 445.248 2216.69C445.372 2204.63 444.714 2196.7 429.662 2192.4C406.133 2185.68 397.052 2158.89 408.053 2137.61C417.844 2118.65 443.328 2110.53 461.686 2123.63C475.707 2133.63 484.895 2134.36 499.431 2124.13C518.891 2110.44 545.067 2119.97 553.9 2140.65C563.212 2162.48 554.113 2186.36 530.975 2193.13C516.883 2197.25 514.288 2204.01 514.252 2216.93C513.826 2340.75 513.062 2464.58 511.782 2588.39C511.64 2601.81 515.745 2607.46 528.718 2611.98C548.746 2618.96 556.548 2635.86 552.194 2656.58C548.017 2676.39 534.334 2686.12 509.881 2687.59L509.845 2687.57Z" fill="#151515"/>
<path d="M94.9421 1477.46C96.5415 1459.77 104.165 1443.26 125.615 1439.2C136.686 1437.1 139.636 1431.66 141.698 1422.01C160.055 1336.39 178.715 1250.82 197.605 1165.33C200.111 1154.02 198.192 1147.25 188.151 1139.13C165.795 1121.04 172.957 1081.57 198.601 1070.52C222.201 1060.35 229.896 1089.91 244.806 1090.01C260.693 1090.12 276.705 1073.93 292.521 1091.91C310.398 1112.23 301.069 1150.04 273.968 1157.06C258.703 1161.03 255.61 1169.04 252.998 1181.18C235.458 1262.87 217.758 1344.53 200.005 1426.17C197.019 1439.87 195.917 1450.46 210.614 1460.95C227.425 1472.94 224.422 1504.47 208.606 1519.32C194.034 1533.01 177.88 1531.52 161.548 1512.86C154.475 1504.77 149.801 1505.78 141.307 1509.89C115.912 1522.15 94.8 1508.04 94.9421 1477.44V1477.46Z" fill="#151515"/>
<path d="M978.5 1081.95C987.279 1081.84 993.321 1083.88 998.67 1087.7C1005.62 1092.66 1010.54 1092.2 1017.08 1085.46C1037.02 1064.92 1050.31 1063.55 1065.29 1078.59C1080.72 1094.08 1083.17 1125 1066.32 1137.12C1051.65 1147.68 1053.09 1157.79 1056.23 1171.87C1074.41 1253.35 1092.23 1334.9 1109.49 1416.56C1112.21 1429.44 1115.6 1436.78 1130.53 1440.46C1154.88 1446.45 1165.17 1480.73 1151.47 1502.03C1145.89 1510.71 1135.81 1519.5 1127.95 1515.27C1106.01 1503.51 1092.75 1512.27 1075.32 1525.67C1061.97 1535.92 1045.64 1525.49 1037.38 1510.63C1027.6 1493.06 1025.42 1472.59 1042.64 1460.36C1056.73 1450.34 1055.57 1441.33 1052.75 1428.27C1034.83 1345.9 1017.24 1263.48 999.701 1181.04C997.124 1168.9 994.139 1160.33 978.589 1157.26C958.757 1153.33 947.667 1130.23 951.861 1109.44C955.007 1093.89 963.519 1083.21 978.5 1081.95Z" fill="#151515"/>
<path d="M203.826 1620.25C202.547 1638.51 196.185 1653.58 178.68 1658.61C166.294 1662.17 162.633 1668.46 161.283 1680.2C151.58 1764.83 141.45 1849.42 131.072 1933.97C129.437 1947.25 128.175 1957.47 143.778 1965.34C157.888 1972.45 159.186 1988.76 156.964 2003.9C154.814 2018.55 147.03 2029.03 133.186 2034.77C112.483 2043.37 104.202 2017.04 89.7362 2017.82C75.4127 2018.6 62.4221 2035.61 45.5218 2023.1C33.2242 2013.98 29.8477 2001.04 31.305 1986.74C32.851 1971.36 39.3197 1956.69 54.9938 1953.75C71.6098 1950.64 71.9829 1940.78 73.4579 1928.32C83.694 1842.13 94.1257 1755.98 105.268 1669.92C106.743 1658.47 104.557 1653.34 93.9302 1648.13C78.2028 1640.42 75.5016 1624.83 77.5275 1608.66C79.3579 1594.03 86.9639 1583.07 100.737 1577.29C121.067 1568.75 130.041 1592.93 144.382 1593.77C158.084 1594.57 171.181 1575.57 188.401 1587.51C200.166 1595.67 203.329 1607.79 203.826 1620.25Z" fill="#151515"/>
<path d="M1094.51 1995.55C1094.82 1983.82 1097 1970.33 1107.68 1966.21C1127.12 1958.68 1122.75 1945.58 1120.99 1931.27C1110.7 1847.52 1100.52 1763.75 1091.03 1679.9C1089.64 1667.64 1084.72 1662.84 1073.4 1658.47C1049.77 1649.34 1040.92 1618.82 1054.49 1597.78C1064.98 1581.54 1079.51 1578.11 1095.83 1588.84C1103.91 1594.16 1109.16 1597.69 1118.29 1588.84C1136.42 1571.32 1152.18 1571.7 1165.63 1587.17C1179.83 1603.51 1179.64 1635.64 1162.01 1645.43C1146.35 1654.13 1146.94 1663.8 1148.73 1678.13C1159.34 1762.64 1169.2 1847.27 1179.09 1931.9C1180.38 1942.93 1182.16 1950.25 1196.09 1953.47C1216.37 1958.16 1222.02 1976.06 1221.04 1995.11C1220.24 2010.64 1211.7 2029.71 1197.46 2026.19C1171.16 2019.67 1150.65 2025.1 1127 2035.23C1112.28 2041.54 1094.39 2016.86 1094.5 1995.53L1094.51 1995.55Z" fill="#151515"/>
<path d="M625.055 907.664C714.177 909.566 803.494 908.713 891.177 928.723C897.414 930.144 903.777 931.548 909.677 933.965C919.415 937.946 925.457 945.303 924.817 956.268C924.178 967.144 917.318 973.523 907.544 977.255C895.513 981.84 883.713 978.641 871.931 976.278C813.446 964.602 754.233 960.142 694.753 958.24C682.278 957.849 671.242 956.783 668.15 973.808C666.302 984.044 657.256 989.375 646.398 989.446C631.133 989.571 615.867 989.588 600.602 989.375C592.872 989.268 584.146 986.141 582.956 979.086C578.477 952.802 559.285 957.956 542.313 958.578C485.25 960.675 428.454 965.349 372.404 976.793C367.677 977.753 362.932 979.032 358.169 979.228C341.909 979.85 326.039 977.362 323.018 958.08C320.068 939.296 334.552 933.485 349.462 930.002C440.218 908.801 532.752 909.406 625.108 907.682L625.055 907.664Z" fill="#151515"/>
<path d="M575.792 679.645C597.278 656.116 606.234 656.24 626.173 681.013C639.573 664.415 653.825 650.518 672.538 675.273C678.331 682.932 681.601 674.029 684.8 670.528C693.028 661.483 702.589 656.809 714.833 660.647C747.603 670.901 766.156 664.131 782.008 632.907C789.72 617.713 801.574 610.658 816.466 605.451C830.149 600.67 831.465 605.788 829.261 617.766C822.046 656.773 799.53 683.341 763.241 697.362C672.556 732.389 581.337 732.673 490.58 697.629C454.487 683.696 431.225 658.017 423.956 618.619C421.024 602.767 426.533 602.199 438.866 606.304C453.243 611.084 464.456 618.441 470.623 633.244C477.874 650.678 492.481 660.576 509.968 666.228C514.358 667.649 521.022 669.764 523.634 667.72C546.115 650.109 562.02 660.505 575.81 679.645H575.792Z" fill="#151515"/>
<path d="M498.701 3553.98C511.194 3555.24 526.495 3550.09 538.277 3562.4C549.97 3574.63 553.08 3588.93 547.731 3604.68C542.187 3620.99 530.707 3629.33 512.918 3628.31C504.903 3627.85 496.853 3628.31 488.82 3628.24C459.853 3628.01 446.205 3616.41 445.832 3591.76C445.441 3566.37 459.711 3554.16 489.958 3553.96C492.374 3553.96 494.774 3553.96 498.701 3553.96V3553.98Z" fill="#151515"/>
<path d="M757.11 3553.98C792.439 3553.98 806.531 3564.61 806.531 3591.23C806.531 3613.71 793.843 3627.18 771.362 3628.12C762.53 3628.49 753.68 3628.3 744.848 3628.23C717.285 3627.99 702.127 3614.76 702.18 3591C702.215 3567.36 717.374 3554.28 745.061 3553.98C749.078 3553.94 753.094 3553.98 757.11 3553.96V3553.98Z" fill="#151515"/>
<path d="M776.003 2706.12C796.173 2705.56 814.495 2722.81 815.739 2743.59C817.018 2764.91 798.963 2785.06 777.993 2785.72C757.574 2786.34 739.874 2769.3 738.843 2747.99C737.724 2725.1 754.02 2706.76 775.985 2706.14L776.003 2706.12Z" fill="#151515"/>
<path d="M513.344 2746.22C513.113 2767.83 496.621 2785.51 476.238 2785.95C455.836 2786.41 436.501 2766.55 436.733 2745.38C436.964 2723.75 456.032 2705.2 477.055 2706.16C498.114 2707.12 513.557 2724.16 513.326 2746.2L513.344 2746.22Z" fill="#151515"/>
<path d="M78.184 2125.87C70.2048 2125.44 61.9768 2126.1 54.2997 2124.36C40.225 2121.16 32.0503 2111.38 31.9081 2096.92C31.7659 2081.46 39.834 2070.33 55.3837 2068.18C68.7476 2066.33 82.5379 2067.03 96.115 2067.36C114.259 2067.81 125.331 2078.33 125.544 2095.66C125.793 2114.32 114.153 2124.73 94.9954 2125.4C89.3975 2125.6 83.7997 2125.44 78.184 2125.44C78.184 2125.58 78.184 2125.72 78.1662 2125.87H78.184Z" fill="#151515"/>
<path d="M922.507 3594.05C921.743 3616.29 906.957 3627.93 887.036 3623.77C876.107 3621.47 865.213 3618.83 854.461 3615.79C836.797 3610.79 829.778 3598.3 833.758 3581.06C837.668 3564.07 848.277 3554.58 867.132 3559.12C878.772 3561.91 890.412 3564.75 902.017 3567.77C916.642 3571.59 922.454 3581.9 922.525 3594.05H922.507Z" fill="#151515"/>
<path d="M420.35 3586.89C419.159 3607.47 406.737 3615.24 389.108 3617.97C369.862 3620.94 348.91 3636.72 333.893 3610.24C327.265 3598.55 328.402 3587.09 336.417 3576.57C343.561 3567.18 390.441 3554.78 401.654 3559.35C414.183 3564.45 418.857 3575.16 420.35 3586.89Z" fill="#151515"/>
<path d="M1165.81 2125.03C1158.61 2125.03 1151.26 2125.99 1144.25 2124.84C1128.94 2122.31 1119.75 2112.75 1119.46 2097.1C1119.16 2080.3 1128.51 2069.71 1145.07 2067.79C1157.71 2066.33 1170.66 2066.85 1183.44 2067.36C1201.19 2068.09 1212.5 2077.55 1212.89 2095.53C1213.31 2114.99 1201.32 2124.27 1182.6 2125.37C1177.02 2125.71 1171.41 2125.42 1165.81 2125.42C1165.81 2125.28 1165.81 2125.14 1165.81 2125V2125.03Z" fill="#151515"/>
<path d="M275.299 976.829C295.363 976.438 312.316 992.343 313.152 1012.35C313.987 1032.06 297.869 1049.42 277.841 1050.38C256.533 1051.41 239.064 1034.89 239.082 1013.76C239.118 993.516 255.076 977.238 275.299 976.847V976.829Z" fill="#151515"/>
<path d="M1013.26 1013.88C1013.21 1034.43 996.968 1050.47 976.336 1050.38C955.632 1050.3 939.816 1034.23 939.994 1013.42C940.171 992.433 955.97 976.759 976.78 976.901C997.377 977.044 1013.32 993.197 1013.26 1013.88Z" fill="#151515"/>
<path d="M626.581 803.119C586.4 803.137 577.319 796.348 581.318 770.545C581.567 768.963 581.62 767.31 582.1 765.8C586.578 751.707 627.061 743.479 652.224 751.885C671.399 758.283 668.894 775.023 665.535 788.245C659.866 810.494 639.465 800.72 626.599 803.119H626.581Z" fill="#151515"/>
<path d="M622.797 1603.75C586.437 1603.75 577.658 1596.98 581.248 1571.78C581.479 1570.2 581.479 1568.55 581.941 1567.04C586.295 1552.77 625.498 1544.61 651.781 1552.77C671.116 1558.78 667.829 1574.91 665.785 1588.76C663.813 1602.21 657.433 1603.75 622.779 1603.75H622.797Z" fill="#151515"/>
<path d="M623.172 1696.57C662.126 1696.57 669.216 1702.21 666.817 1728.4C665.893 1738.51 661.699 1747.15 651.996 1747.31C630.102 1747.7 606.502 1756.02 586.794 1741.62C577.073 1734.51 578.886 1720.3 582.885 1710.03C590.882 1689.48 610.199 1698.97 623.172 1696.59V1696.57Z" fill="#151515"/>
<path d="M622.475 1624.3C662.318 1624.3 668.857 1629.29 666.867 1655.2C666.085 1665.3 662.246 1673.88 652.508 1674.5C630.596 1675.9 607.245 1682.92 587.235 1669.53C576.963 1662.65 579.007 1648.4 582.65 1638.14C590.131 1617.1 609.626 1626.79 622.475 1624.28V1624.3Z" fill="#151515"/>
<path d="M625.16 1820.92C586.615 1820.86 577.96 1814.27 581.212 1789.09C581.425 1787.51 581.355 1785.85 581.799 1784.34C585.975 1769.82 623.419 1762.02 651.426 1769.91C671.223 1775.49 669.001 1792.16 665.625 1805.33C659.636 1828.72 638.311 1818.18 625.16 1820.92Z" fill="#151515"/>
<path d="M625.091 885.753C586.403 885.753 578.211 879.427 581.143 854.067C582.28 844.169 586.528 835.426 596.213 834.999C618.142 834.022 641.725 826.291 661.433 840.668C671.207 847.794 668.861 862.295 665.182 872.389C657.541 893.359 637.886 883.016 625.109 885.735L625.091 885.753Z" fill="#151515"/>
<path d="M778.612 3529.15C759.082 3528.51 743.141 3510.51 744.367 3490.54C745.558 3471.24 761.765 3456.35 780.904 3456.95C799.848 3457.55 815.487 3473.81 815.398 3492.81C815.291 3512.73 798.018 3529.79 778.612 3529.15Z" fill="#151515"/>
<path d="M507.923 3492.97C507.764 3513.41 491.165 3529.9 471.475 3529.21C453.011 3528.55 437.426 3511.84 437.426 3492.76C437.444 3472.3 453.935 3456.19 474.123 3456.91C493.44 3457.61 508.083 3473.23 507.923 3492.97Z" fill="#151515"/>
<path d="M79.8372 2195.23C63.0436 2195.48 51.0659 2188.51 51.3325 2170.67C51.6168 2151.4 65.0339 2145.5 82.3963 2145.91C98.9767 2146.3 111.168 2153.34 111.097 2170.86C111.008 2190.32 97.0041 2195.71 79.855 2195.21L79.8372 2195.23Z" fill="#151515"/>
<path d="M1136.27 2371.53C1126.13 2369.88 1119.75 2365.71 1117.06 2357.25C1114.33 2348.61 1131.19 2308.61 1139.17 2303.76C1146.39 2299.35 1152.91 2301.18 1159.06 2305.71C1163.78 2309.19 1167.6 2314.4 1166.15 2319.93C1161.9 2335.99 1157.01 2352.07 1147.26 2365.78C1144.89 2369.1 1139.24 2370.08 1136.27 2371.53Z" fill="#151515"/>
<path d="M101.768 2249.62C101.768 2255.24 102.052 2260.87 101.714 2266.45C101.021 2277.44 95.7965 2284.92 84.1032 2285.24C72.3743 2285.56 66.3854 2278.17 65.479 2267.38C64.6082 2257.04 65.2836 2246.55 65.4436 2236.14C65.639 2223.47 70.064 2213.18 84.5119 2213.75C98.9242 2214.31 102.39 2224.99 101.981 2237.58C101.856 2241.57 101.963 2245.59 101.963 2249.61H101.785L101.768 2249.62Z" fill="#151515"/>
<path d="M1164.92 2195.26C1147.73 2195.51 1134.23 2190.32 1134.39 2170.44C1134.53 2152.33 1146.76 2146.18 1163.12 2145.95C1180.43 2145.7 1193.64 2151.69 1193.73 2171.06C1193.81 2189.31 1181.18 2195.1 1164.92 2195.26Z" fill="#151515"/>
<path d="M1178.94 2249.13C1178.94 2255.52 1179.32 2261.96 1178.85 2268.32C1178.13 2278.47 1172.63 2284.93 1162.24 2285.22C1150.81 2285.52 1144.29 2279.16 1143.65 2267.75C1143.06 2257.37 1143.33 2246.94 1143.12 2236.54C1142.85 2223.73 1147.06 2213.58 1161.47 2213.73C1176.12 2213.87 1179.48 2224.53 1179.1 2237.11C1178.98 2241.11 1179.09 2245.11 1179.09 2249.13C1179.03 2249.13 1179 2249.13 1178.94 2249.13Z" fill="#151515"/>
<path d="M1030.84 2233.74C1031.6 2224.3 1028.6 2214.83 1035.43 2207.74C1041.91 2201 1049.73 2201.25 1056.71 2207.17C1064.5 2213.74 1064.78 2251.52 1057.41 2259.22C1050.73 2266.19 1043.21 2266.52 1036.44 2260.05C1028.6 2252.54 1032.03 2242.11 1030.84 2233.75V2233.74Z" fill="#151515"/>
<path d="M1068 2150.2C1063.82 2161.52 1072.81 2186.5 1047.81 2182.93C1025.28 2179.71 1038.18 2158.73 1038.2 2145.18C1038.2 2133.31 1041.41 2121.53 1056.79 2123.72C1071.04 2125.74 1069.46 2137.58 1068 2150.18V2150.2Z" fill="#151515"/>
<path d="M176.583 2146.27C175.037 2135.93 175.872 2125.81 188.116 2123.57C200.663 2121.28 204.679 2130.47 206.012 2141.01C207.131 2149.73 208.358 2158.48 208.926 2167.26C209.531 2176.46 205.55 2183.11 195.811 2184.03C186.108 2184.96 181.008 2179.23 179.604 2170.1C178.378 2162.17 177.56 2154.19 176.565 2146.25L176.583 2146.27Z" fill="#151515"/>
<path d="M303.983 3604.86C302.526 3618.36 296.52 3628.14 281.681 3628.1C266.966 3628.05 259.787 3618.84 259.84 3604.88C259.893 3591.89 266.931 3583.53 280.419 3583C295.045 3582.43 302.26 3590.85 303.983 3604.88V3604.86Z" fill="#151515"/>
<path d="M993.003 3605.55C991.137 3619.13 985.041 3628.87 970.007 3628.07C955.488 3627.3 948.237 3617.8 948.735 3604.04C949.197 3591.21 957.052 3583.3 970.38 3582.98C985.45 3582.63 991.528 3591.99 992.985 3605.53L993.003 3605.55Z" fill="#151515"/>
<path d="M213.903 2239.76C213.601 2241.95 213.779 2249.34 211.38 2255.81C209.087 2261.99 202.441 2266.52 195.99 2263.86C174.078 2254.85 185.807 2235.23 183.799 2220.18C182.484 2210.33 187.78 2202.62 198.816 2203.33C216.658 2204.47 213.477 2218.56 213.885 2230.11C213.939 2231.69 213.885 2233.27 213.885 2239.78L213.903 2239.76Z" fill="#151515"/>
<path d="M415.606 459.337C416.477 414.288 448.091 382.513 491.222 383.366C535.454 384.255 564.776 415.816 564.047 461.825C563.337 506.377 529.181 542.044 487.632 541.599C445.017 541.137 414.699 506.502 415.606 459.32V459.337Z" fill="#FF383C"/>
<path d="M837.22 462.413C836.954 508.084 806.103 541.725 764.537 541.636C722.099 541.547 689.809 506.787 689.738 461.169C689.667 412.903 718.83 382.639 764.697 383.403C807.472 384.114 837.487 416.812 837.22 462.413Z" fill="#FF383C"/>
<path d="M626.795 485.391C640.496 489.371 650.288 499.696 657.628 512.403C664.025 523.492 670.707 534.954 663.012 548.371C657.716 557.63 648.138 561.486 640.834 555.515C628.874 545.741 620.415 547.909 608.562 555.355C599.996 560.74 591.733 554.68 587.698 545.226C580.288 527.881 606.696 486.208 626.795 485.391Z" fill="#FF383C"/>
<path d="M807.811 1924.61C805.625 1941.28 797.788 1952.88 780.302 1952.51C761.695 1952.1 752.899 1939.98 753.752 1922.23C754.552 1905.33 764.61 1895.13 781.812 1895.89C799.246 1896.66 806.496 1908.56 807.811 1924.61Z" fill="#FF383C"/>
<path d="M499.252 1924.42C497.759 1940.07 490.509 1952.05 473.004 1952.48C454.291 1952.94 445.068 1941.1 445.121 1923.38C445.157 1906.4 455.091 1895.82 472.151 1895.88C489.371 1895.93 497.759 1907.04 499.27 1924.43L499.252 1924.42Z" fill="#FF383C"/>
<rect x="350" y="949" width="549" height="310" rx="20" fill="#F0F0F0"/>
<path d="M390.188 1155.62V1084.44C390.188 1081.1 391.188 1078.52 393.188 1076.69C395.188 1074.85 397.646 1073.94 400.562 1073.94H425.5C434.708 1073.94 442.083 1076.54 447.625 1081.75C453.208 1086.96 456 1093.88 456 1102.5C456 1109.33 454.125 1115.04 450.375 1119.62C446.625 1124.17 441.417 1127.08 434.75 1128.38L452.812 1148.06C454.271 1149.6 455.354 1151.08 456.062 1152.5C456.771 1153.92 457.125 1155.44 457.125 1157.06C457.125 1159.19 456.354 1161.19 454.812 1163.06C452.771 1165.52 450 1166.75 446.5 1166.75C443.958 1166.75 442.083 1166.4 440.875 1165.69C439.667 1164.94 438.271 1163.58 436.688 1161.62L411.188 1129.12L410.938 1155.62C410.938 1159.21 409.979 1161.96 408.062 1163.88C406.146 1165.79 403.646 1166.75 400.562 1166.75C397.396 1166.75 394.875 1165.81 393 1163.94C391.125 1162.06 390.188 1159.29 390.188 1155.62ZM410.938 1113.62H424.625C427.958 1113.62 430.562 1112.65 432.438 1110.69C434.312 1108.73 435.25 1106.25 435.25 1103.25C435.25 1100.25 434.25 1097.85 432.25 1096.06C430.25 1094.23 427.708 1093.31 424.625 1093.31H410.938V1113.62ZM464.062 1129V1084.31C464.062 1080.73 465.021 1077.98 466.938 1076.06C468.896 1074.15 471.396 1073.19 474.438 1073.19C477.604 1073.19 480.125 1074.12 482 1076C483.875 1077.88 484.812 1080.65 484.812 1084.31V1129C484.812 1134.88 486.646 1139.56 490.312 1143.06C493.729 1146.31 498.125 1147.94 503.5 1147.94C508.792 1147.94 513.25 1146.25 516.875 1142.88C520.5 1139.5 522.312 1134.88 522.312 1129V1084.31C522.312 1080.73 523.271 1077.98 525.188 1076.06C527.104 1074.15 529.604 1073.19 532.688 1073.19C535.854 1073.19 538.375 1074.12 540.25 1076C542.125 1077.88 543.062 1080.65 543.062 1084.31V1129C543.062 1140.96 539.417 1150.46 532.125 1157.5C524.833 1164.54 515.292 1168.06 503.5 1168.06C491.792 1168.06 482.375 1164.6 475.25 1157.69C467.833 1150.52 464.104 1140.96 464.062 1129ZM549.688 1119.94C549.688 1106.02 553.917 1094.54 562.375 1085.5C570.833 1076.46 581.542 1071.94 594.5 1071.94C603.792 1071.94 611.812 1073.65 618.562 1077.06C626.062 1080.9 629.812 1085.88 629.812 1092C629.812 1094.75 628.979 1096.92 627.312 1098.5C625.646 1100.08 623.375 1100.88 620.5 1100.88C618.542 1100.88 615.146 1099.27 610.312 1096.06C605.479 1092.85 600.5 1091.25 595.375 1091.25C588.292 1091.25 582.604 1093.96 578.312 1099.38C574.062 1104.79 571.938 1111.65 571.938 1119.94C571.938 1127.85 573.729 1134.42 577.312 1139.62C581.479 1145.67 587.375 1148.71 595 1148.75C600.458 1148.75 604.938 1147.12 608.438 1143.88C611.938 1140.62 613.938 1136.27 614.438 1130.81H602.562C599.229 1130.81 596.667 1129.96 594.875 1128.25C593.083 1126.54 592.188 1124.19 592.188 1121.19C592.188 1114.73 595.604 1111.5 602.438 1111.5C602.479 1111.5 602.521 1111.5 602.562 1111.5H624.938C632.271 1111.5 635.938 1115.75 635.938 1124.25C635.938 1136.88 632.229 1147.25 624.812 1155.38C617.146 1163.83 607.042 1168.06 594.5 1168.06C580.583 1168.06 569.521 1163.35 561.312 1153.94C553.562 1145.06 549.688 1133.73 549.688 1119.94ZM641.438 1119.94C641.438 1106.02 645.667 1094.54 654.125 1085.5C662.583 1076.46 673.292 1071.94 686.25 1071.94C695.542 1071.94 703.562 1073.65 710.312 1077.06C717.812 1080.9 721.562 1085.88 721.562 1092C721.562 1094.75 720.729 1096.92 719.062 1098.5C717.396 1100.08 715.125 1100.88 712.25 1100.88C710.292 1100.88 706.896 1099.27 702.062 1096.06C697.229 1092.85 692.25 1091.25 687.125 1091.25C680.042 1091.25 674.354 1093.96 670.062 1099.38C665.812 1104.79 663.688 1111.65 663.688 1119.94C663.688 1127.85 665.479 1134.42 669.062 1139.62C673.229 1145.67 679.125 1148.71 686.75 1148.75C692.208 1148.75 696.688 1147.12 700.188 1143.88C703.688 1140.62 705.688 1136.27 706.188 1130.81H694.312C690.979 1130.81 688.417 1129.96 686.625 1128.25C684.833 1126.54 683.938 1124.19 683.938 1121.19C683.938 1114.73 687.354 1111.5 694.188 1111.5C694.229 1111.5 694.271 1111.5 694.312 1111.5H716.688C724.021 1111.5 727.688 1115.75 727.688 1124.25C727.688 1136.88 723.979 1147.25 716.562 1155.38C708.896 1163.83 698.792 1168.06 686.25 1168.06C672.333 1168.06 661.271 1163.35 653.062 1153.94C645.312 1145.06 641.438 1133.73 641.438 1119.94ZM733.062 1155.5V1084.44C733.062 1081.1 734.062 1078.52 736.062 1076.69C738.062 1074.85 740.521 1073.94 743.438 1073.94H775.188C778.521 1073.94 781.083 1074.79 782.875 1076.5C784.667 1078.21 785.562 1080.6 785.562 1083.69C785.562 1086.69 784.667 1089.04 782.875 1090.75C781.083 1092.46 778.521 1093.31 775.188 1093.31H753.812V1110.06H773.375C776.625 1110.06 779.167 1110.92 781 1112.62C782.833 1114.33 783.75 1116.69 783.75 1119.69C783.75 1126.15 780.333 1129.38 773.5 1129.38C773.458 1129.38 773.417 1129.38 773.375 1129.38H753.812V1146.56H775.938C779.271 1146.56 781.833 1147.42 783.625 1149.12C785.417 1150.83 786.312 1153.21 786.312 1156.25C786.312 1159.25 785.396 1161.62 783.562 1163.38C781.729 1165.12 779.188 1166 775.938 1166H743.438C740.604 1166 738.167 1165.06 736.125 1163.19C734.083 1161.31 733.062 1158.75 733.062 1155.5ZM791.812 1155.62V1084.44C791.812 1081.1 792.812 1078.52 794.812 1076.69C796.812 1074.85 799.271 1073.94 802.188 1073.94H827.125C836.333 1073.94 843.708 1076.54 849.25 1081.75C854.833 1086.96 857.625 1093.88 857.625 1102.5C857.625 1109.33 855.75 1115.04 852 1119.62C848.25 1124.17 843.042 1127.08 836.375 1128.38L854.438 1148.06C855.896 1149.6 856.979 1151.08 857.688 1152.5C858.396 1153.92 858.75 1155.44 858.75 1157.06C858.75 1159.19 857.979 1161.19 856.438 1163.06C854.396 1165.52 851.625 1166.75 848.125 1166.75C845.583 1166.75 843.708 1166.4 842.5 1165.69C841.292 1164.94 839.896 1163.58 838.312 1161.62L812.812 1129.12L812.562 1155.62C812.562 1159.21 811.604 1161.96 809.688 1163.88C807.771 1165.79 805.271 1166.75 802.188 1166.75C799.021 1166.75 796.5 1165.81 794.625 1163.94C792.75 1162.06 791.812 1159.29 791.812 1155.62ZM812.562 1113.62H826.25C829.583 1113.62 832.188 1112.65 834.062 1110.69C835.938 1108.73 836.875 1106.25 836.875 1103.25C836.875 1100.25 835.875 1097.85 833.875 1096.06C831.875 1094.23 829.333 1093.31 826.25 1093.31H812.562V1113.62Z" fill="#FF383C"/>
<circle cx="865" cy="974" r="14" fill="#979797"/>
<circle cx="865.5" cy="974.5" r="7.5" fill="#616161"/>
<circle cx="865" cy="1235" r="14" fill="#979797"/>
<circle cx="387" cy="974" r="14" fill="#979797"/>
<circle cx="387" cy="1235" r="14" fill="#979797"/>
<circle cx="387.5" cy="974.5" r="7.5" fill="#616161"/>
<circle cx="865.5" cy="1235.5" r="7.5" fill="#616161"/>
<circle cx="387.5" cy="1235.5" r="7.5" fill="#616161"/>
</svg>
