<svg width="1001" height="1000" viewBox="0 0 1001 1000" fill="none" xmlns="http://www.w3.org/2000/svg">
<path d="M1000.24 500.078C1001.29 776.876 773.643 1002.45 496.735 999.98C431.027 999.556 366.046 986.184 305.515 960.628C244.983 935.073 190.089 897.836 143.974 851.049C97.8594 804.263 61.4298 748.845 36.7708 687.969C12.1118 627.093 -0.292453 561.953 0.26819 496.28C1.59294 221.781 227.114 -0.625863 501.128 0.00132324C778.035 0.663353 1001.5 226.799 1000.24 500.078ZM629.629 360.703C628.574 366.107 625.462 370.891 620.948 374.048C544.113 448.66 467.242 523.226 390.337 597.745C380.611 607.187 380.715 607.117 391.871 613.947C422.387 632.53 452.879 651.264 483.349 670.15C515.979 690.22 548.505 710.464 581.31 730.29C600.589 741.962 613.209 737.259 621.227 716.596C622.377 713.565 623.388 710.464 624.469 707.398C660.237 607.512 695.994 507.546 731.739 407.498C750.332 355.14 768.925 302.723 787.518 250.249C790.272 242.478 791.283 234.22 784.555 227.983C777.826 221.746 770.61 223.558 762.975 225.719C760.883 226.346 758.862 227.078 756.84 227.809L200.445 432.655C191.973 435.756 183.293 438.439 176.042 444.223C165.339 452.865 163.91 464.886 172.555 475.583C177.553 481.327 183.509 486.16 190.161 489.868C237.294 518.858 284.392 547.895 331.456 576.978C333.337 578.564 335.746 579.386 338.205 579.283C340.665 579.18 342.996 578.158 344.738 576.42C428.197 512.912 511.784 449.554 595.499 386.348C605.958 378.404 616.59 370.529 629.629 360.773V360.703ZM357.114 628.999C357.114 678.233 357.114 725.237 357.114 772.207C357.314 775.45 357.911 778.656 358.892 781.754C363.354 798.34 375.033 802.66 389.256 792.695C391.971 790.879 394.433 788.711 396.577 786.249C419.482 758.757 442.177 731.126 465.185 703.704C469.299 698.791 467.661 696.735 462.954 693.948C454.832 689.279 446.953 684.122 438.935 679.209L357.114 628.999Z" fill="white"/>
<path d="M634.047 357.982C634.849 357.145 635.755 356.692 636.522 357.982C636.522 357.982 635.685 358.853 635.232 359.341L634.047 357.982Z" fill="white"/>
<path d="M631.566 360.075L634.076 357.984L635.262 359.308L633.1 361.504C632.641 360.975 632.127 360.496 631.566 360.075Z" fill="white"/>
<path d="M633.088 361.505C632.391 362.516 631.624 363.7 630.369 362.237C630.195 362.028 631.136 360.843 631.554 360.111C632.122 360.51 632.637 360.978 633.088 361.505Z" fill="white"/>
</svg>
