<svg width="1253" height="3651" viewBox="0 0 1253 3651" fill="none" xmlns="http://www.w3.org/2000/svg">
<rect x="311" width="627" height="703" rx="100" fill="#26A69A"/>
<path d="M99.4546 2370.09C75.7303 2358.44 64.1791 2335.74 51.2595 2314.93C1.26951 2234.39 -2.56903 2144.01 1.28729 2053.59C6.79632 1924.18 22.506 1795.56 40.1704 1667.29C61.8689 1509.55 86.6772 1352.31 121.899 1196.92C131.14 1156.17 142.105 1115.85 154.883 1075.97C184.347 983.956 244.609 923.463 336.894 895.403C395.449 877.596 451.197 852.361 508.829 832.173C515.724 829.757 522.992 827.82 522.957 818.33C522.886 797.413 522.992 776.497 522.743 755.598C522.619 744.634 512.703 744.403 505.79 741.381C452.246 717.995 406.521 685.225 376.381 633.778C371.53 625.479 366.323 616.949 363.799 607.815C358.948 590.239 351.199 576.84 331.136 574.743C328.897 574.512 326.853 572.61 324.685 571.544C278.249 549.01 253.156 405.421 321.735 376.419C335.845 370.447 334.868 360.3 334.193 348.891C331.1 297.071 332.167 245.784 355.678 197.82C401.954 103.403 476.414 49.2723 582.223 42.0395C643.462 37.8456 704.897 38.0766 762.582 63.2048C867.36 108.841 928.084 214.081 919.874 334.799C918.452 355.609 915.857 374.961 941.821 382.994C946.637 384.487 950.475 390.067 954.118 394.314C995.845 442.847 969.224 555.284 910.082 578.439C901.214 581.905 897.464 587.343 894.923 595.197C871.092 668.823 819.058 715.009 749.005 742.234C732.993 748.454 729.314 756.86 729.439 772.498C729.919 826.895 729.332 827.109 780.228 846.088C837.433 867.431 895.243 887.21 951.968 909.744C1023.87 938.302 1069.13 993.001 1093.57 1064.97C1138.48 1197.26 1160.05 1334.81 1183.15 1471.98C1212.81 1648.09 1234.08 1825.27 1249.49 2003.16C1255.69 2074.77 1254.18 2146.16 1240.41 2217.01C1230.83 2266.27 1208.9 2309.65 1178 2348.64C1170.57 2358.01 1161.56 2366.33 1152.32 2373.93C1142.63 2381.89 1130.99 2386.6 1118.86 2379.74C1107.87 2373.54 1105.33 2362.31 1105.94 2350.47C1107.61 2317.54 1109.63 2284.65 1111.13 2251.7C1111.71 2238.82 1111.21 2225.76 1106.03 2213.71C1102.12 2204.61 1095.54 2195.21 1085.36 2195.8C1072.83 2196.52 1076.77 2209.41 1075.83 2217.08C1073.9 2233.01 1074.06 2249.18 1072.95 2265.23C1072.08 2278.07 1065.84 2287.01 1052.13 2287.1C1038.51 2287.19 1028.44 2280.67 1027.28 2266.1C1023.62 2219.56 1022.64 2172.91 1024.97 2126.29C1025.72 2111.31 1032.9 2097.59 1047.83 2091.8C1069.67 2083.3 1074.43 2067.15 1074.2 2045.79C1073.11 1941.71 1058.91 1838.97 1042.3 1736.57C1016.02 1574.7 988.683 1412.98 961.724 1251.23C960.303 1242.65 958.224 1234.19 952.341 1225.55C946.601 1266.91 940.577 1308.24 935.157 1349.65C918.15 1479.5 891.209 1608.11 888.081 1739.7C886.926 1788.08 888.525 1836.2 893.217 1884.25C901.854 1972.64 895.847 2061.09 894.799 2149.5C889.627 2587.91 884.367 3026.3 878.52 3464.72C878.236 3485.88 883.034 3499.37 901.64 3512.15C949.32 3544.9 994.885 3580.72 1041.09 3615.61C1048.61 3621.28 1058.93 3627.53 1055.43 3638.5C1052 3649.21 1039.81 3649.39 1030.59 3649.57C996.84 3650.24 963.057 3650.07 929.292 3649.62C860.145 3648.73 790.98 3648.27 721.868 3646.1C671.612 3644.52 670.492 3642.96 669.799 3593.45C665.036 3257.22 660.629 2920.99 655.991 2584.75C653.859 2430.3 651.246 2275.87 649.433 2121.42C649.238 2105.07 646.946 2096.94 627.309 2096.79C607.298 2096.65 603.566 2104.01 603.353 2121.96C598.644 2504.05 593.419 2886.13 588.265 3268.2C586.773 3379.2 585.298 3490.22 583.485 3601.21C582.881 3638.07 579.753 3643.99 544.762 3644.95C437.887 3647.92 330.94 3648.72 224.012 3649.8C214.131 3649.91 200.679 3650.46 197.267 3638.23C193.908 3626.2 205.637 3620.09 213.758 3613.97C259.998 3579.12 305.794 3543.67 353.208 3510.49C369.148 3499.33 374.337 3487.89 374.089 3469.12C368.811 3070.15 363.497 2671.15 359.659 2272.16C358.432 2144.31 348.143 2016.11 359.801 1888.68C373.822 1735.33 354.096 1585.54 328.115 1435.45C317.701 1375.29 312.174 1314.28 304.213 1253.7C303.111 1245.35 304.408 1236.25 295.789 1225.77C287.419 1274.39 279.387 1320.09 271.674 1365.85C243.347 1533.91 214.06 1701.83 191.153 1870.73C183.156 1929.67 178.678 1989.08 178.358 2048.72C178.252 2068.25 183.583 2082.9 203.255 2090.77C219.925 2097.43 227.904 2112.09 227.993 2129.12C228.241 2173.33 227.495 2217.56 226.145 2261.76C225.665 2277.28 216.868 2288.01 200.092 2287.23C183.583 2286.45 179.798 2274.38 179.265 2260.09C178.643 2243.23 177.523 2226.36 176.119 2209.55C175.675 2204.29 176.492 2197.15 169.348 2195.65C163.448 2194.43 158.686 2198.57 154.669 2202.55C142.763 2214.35 141.163 2229.92 141.59 2245.15C142.603 2280.49 145.073 2315.78 146.601 2351.13C147.152 2363.86 144.167 2376.24 130.856 2380.83C118.612 2385.04 106.972 2381.98 99.2946 2370.09C126.627 2370.73 133.095 2362.22 123.783 2337.79C121.224 2331.05 118.647 2324.33 115.928 2317.67C111.272 2306.22 104.502 2297.45 90.5869 2303.22C77.5252 2308.64 75.9791 2318.93 81.4881 2330.98C87.4414 2344.04 93.4302 2357.1 99.4013 2370.16L99.4546 2370.09ZM626.189 612.08C652.135 644.263 664.379 643.392 685.917 606.038C693.186 615.065 698.571 625.212 709.055 630.295C729.883 640.371 754.461 629.904 751.28 609.467C747.956 588.053 760.947 589.049 772.48 587.414C834.999 578.581 869.102 539.698 882.359 481.25C896.274 419.922 903.382 357.919 894.123 294.708C881.772 210.295 845.377 141.966 767.54 101.217C691.053 61.1789 610.764 56.0431 529.212 82.4863C449.847 108.219 395.325 160.75 371.441 241.679C345.371 329.983 351.342 418.092 378.762 504.992C393.104 550.45 425.642 576.627 472.203 585.69C478.511 586.916 484.713 588.889 491.058 589.564C499.801 590.488 503.871 593.776 502.556 603.425C500.707 616.949 506.181 627.061 519.616 631.61C534.33 636.586 546.112 631.237 556.58 620.841C560.685 616.753 561.307 608.739 569.25 608.703C587.039 643.286 602.749 644.139 626.171 612.115L626.189 612.08ZM673.815 1196.46C716.146 1210.39 759.116 1219.69 803.864 1214.02C838.127 1209.68 863.984 1192.18 880.511 1161.93C889.307 1145.83 892.115 1129.32 872.798 1117.98C856.662 1108.49 840.099 1114.75 829.65 1134.74C823.341 1146.83 815.38 1157.24 801.98 1159.6C758.21 1167.35 717.052 1157.58 679.129 1135.83C664.574 1127.47 670.279 1109.97 673.193 1098.15C676.286 1085.66 688.032 1095.98 695.389 1097.32C721.637 1102.04 747.939 1105.06 774.56 1103.04C808.804 1100.44 835.852 1084.75 854.565 1055.89C863.984 1041.36 868.675 1026 851.028 1013.58C835.71 1002.79 815.948 1007.29 806.192 1025.7C794.658 1047.49 776.39 1053.92 754.158 1052.89C731.625 1051.84 709.464 1047.82 688.05 1040.43C681.35 1038.12 675.45 1035.99 670.954 1028.79C659.972 1011.25 593.668 1002.74 584.107 1019.68C567.296 1049.41 539.253 1046.31 513.734 1051.15C485.033 1056.59 460.101 1052.71 444.462 1022.27C435.95 1005.71 418.463 1003.56 402.522 1013.28C385.693 1023.51 387.861 1038.33 396.711 1053.12C414.998 1083.65 442.347 1100.07 477.463 1102.95C501.578 1104.92 525.622 1103.18 549.453 1098.45C578.616 1092.68 578.083 1092.84 576.91 1122.02C576.483 1132.54 572.325 1137.85 563.297 1141.99C532.038 1156.35 499.446 1163.58 465.041 1162.11C445.777 1161.29 432.058 1152.78 423.243 1134.72C413.505 1114.77 396.249 1108.62 380.042 1118C360.671 1129.23 363.159 1145.56 372.134 1161.79C393.423 1200.23 427.846 1215.78 470.337 1215.72C501.045 1215.69 531.203 1211.41 560.631 1202.25C565.874 1200.62 574.777 1194.44 575.684 1205.17C577.016 1221 582.259 1238.05 560.685 1248.3C527.951 1263.83 494.257 1271.93 458.235 1271.29C438.047 1270.94 423.261 1262.69 413.736 1243.96C403.535 1223.88 386.564 1217.68 370.748 1227.38C351.697 1239.08 355.091 1255.66 363.675 1271.65C382.032 1305.81 412.297 1321.92 449.865 1325C487.344 1328.07 523.383 1320.27 558.872 1308.9C564.239 1307.17 570.299 1300.4 575.808 1308.36C582.952 1318.69 574.013 1352.88 562.551 1359.56C531.825 1377.49 498.077 1383.64 463.068 1384.32C440.357 1384.76 422.55 1377.23 412.687 1354.73C405.028 1337.23 390.545 1330.92 373.111 1339.04C354.807 1347.55 353.687 1363.4 361.471 1379.96C377.074 1413.2 403.979 1431.96 439.93 1436.64C472.967 1440.94 505.808 1437.6 537.831 1428.46C578.598 1416.84 578.047 1416.55 576.981 1459.51C576.696 1470.95 572.929 1476.94 562.497 1481.15C543.02 1489.04 523.294 1495.88 502.342 1497.89C466.072 1501.34 429.925 1506.96 409.542 1463.19C402.487 1448.03 383.045 1448.67 368.509 1456.95C353.474 1465.51 351.768 1479.23 359.303 1494.46C376.043 1528.3 404.317 1546.8 440.588 1551.7C496.194 1559.22 549.756 1549.43 599.639 1524.18C618.37 1514.7 632.924 1512.68 652.259 1523.66C692.955 1546.78 738.591 1553.98 784.796 1554.19C829.934 1554.4 868.515 1539.65 892.026 1497.59C901.125 1481.31 901.587 1465.87 883.318 1456.52C866.507 1447.92 848.434 1449.38 839.673 1467.88C826.735 1495.21 805.126 1501.11 778.274 1499.94C754.869 1498.91 731.82 1496.38 709.571 1488.56C670.901 1474.99 671.932 1475.02 671.292 1434.81C670.972 1414.14 678.223 1414.69 693.612 1420.96C732.335 1436.76 772.96 1441.77 814.278 1436.35C850.282 1431.62 876.636 1411.92 892.008 1378.67C899.419 1362.66 897.215 1347.83 880.599 1339.55C863.521 1331.04 848.238 1336.11 840.614 1353.81C829.899 1378.7 810.244 1384.99 785.968 1384.34C760.023 1383.63 734.788 1379.13 710.602 1369.69C671.31 1354.36 667.187 1346.59 674.331 1301.79C694.945 1308.65 715.24 1315.97 736.494 1320.24C757.961 1324.54 779.482 1326.21 801.216 1325.16C843.369 1323.15 882.057 1296.57 893.466 1262.3C898.779 1246.33 895.474 1233.05 879.373 1226.23C864.374 1219.87 848.558 1222.42 842.143 1237.96C829.437 1268.7 805.552 1273.29 777.172 1271.13C751.35 1269.18 726.364 1264.22 702.693 1252.99C669.675 1237.32 668.786 1236.21 673.78 1196.5L673.815 1196.46ZM475.952 2083.75C491.715 2084.07 506.288 2079.64 519.296 2071.2C539.484 2058.09 558.997 2043.96 579.078 2030.72C610.515 2009.98 642.29 2009.73 673.727 2030.79C687.055 2039.73 699.903 2049.4 713.072 2058.57C726.276 2067.77 739.853 2076.53 755.473 2080.99C798.604 2093.33 829.277 2071.68 830.912 2027.26C831.782 2003.41 840.437 1981.9 847.989 1959.9C851.348 1950.09 855.542 1940.16 856.52 1930.01C861.993 1873.54 810.084 1837.43 751.688 1857.65C728.835 1865.56 706.194 1873.13 682.026 1875.65C672.856 1876.61 666.156 1876.08 666.778 1864.05C667.471 1850.75 660.842 1840.7 647.408 1841.94C626.136 1843.89 602.234 1831.6 583.965 1852.05C582.97 1853.17 582.117 1855.05 582.277 1856.48C585.102 1883.2 567.278 1876.41 552.812 1874.55C535.148 1872.29 518.763 1866.05 502.485 1858.86C471.936 1845.37 442.258 1847.15 417.503 1870.98C393.512 1894.1 390.882 1922.76 402.185 1953.22C412.243 1980.3 421.662 2007.09 422.639 2036.85C423.634 2066.94 445.084 2083.77 475.935 2083.73L475.952 2083.75ZM743.283 2809.18C717.87 2811.45 705.963 2823.08 701.503 2842.27C696.651 2863.15 706.034 2885.4 726.133 2891.6C741.665 2896.38 743.247 2904.59 743.283 2917.76C743.62 3052.82 744.242 3187.88 745.06 3322.94C745.131 3335.66 744.544 3343.96 728.835 3349.35C705.11 3357.48 697.149 3388.18 709.429 3410.3C722.028 3433.03 744.953 3437.35 768.411 3419.99C777.687 3413.13 783.836 3412.26 793.663 3419.29C817.725 3436.51 840.064 3432.14 852.628 3409.45C865.067 3387 857.248 3356.76 833.222 3348.63C816.464 3342.97 816.055 3333.81 815.984 3320.22C815.166 3186.78 814.082 3053.33 812.643 2919.89C812.483 2905.37 813.478 2895.87 830.61 2889.77C850.851 2882.56 858.261 2863.15 853.872 2842.11C849.713 2822.17 835.177 2803.65 815.877 2809.85C788.581 2818.63 764.341 2831.93 743.3 2809.18H743.283ZM505.044 3431.07C530.598 3429.85 542.665 3418.55 547.712 3399.41C553.097 3378.99 544.3 3355.6 524.432 3349.54C507.034 3344.25 507.443 3334.24 507.532 3320.93C508.385 3187.47 509.131 3054.01 509.451 2920.55C509.486 2905.76 511.335 2896.59 528.359 2890.59C551.835 2882.31 559.103 2851.14 546.379 2829.1C534.241 2808.06 510.606 2803.39 488.73 2819.72C478.032 2827.7 471.598 2826.42 461.593 2818.9C439.611 2802.39 416.064 2806.94 404.175 2828.23C390.971 2851.88 399.075 2882.95 424.239 2890.68C440.748 2895.76 440.481 2904.27 440.357 2916.76C439.024 3051.82 437.816 3186.88 436.909 3321.94C436.821 3334.88 436.056 3343.48 420.205 3348.32C400.194 3354.41 391.167 3376.75 396.231 3397.79C400.816 3416.89 413.185 3433.69 432.609 3428.82C459.585 3422.06 484.625 3406.43 505.061 3431.06L505.044 3431.07ZM737.916 2401.65C738.733 2401.65 739.533 2401.65 740.35 2401.65C740.35 2463.5 740.172 2525.36 740.51 2587.2C740.581 2599.27 739.462 2606.89 725.014 2611.65C701.112 2619.54 692.368 2646.11 703.689 2666.74C715.435 2688.18 739.87 2693.92 761.249 2678.38C772.16 2670.46 780.228 2668.89 790.873 2677.9C803.793 2688.85 818.596 2689.86 833.435 2681.48C847.35 2673.6 853.996 2660.76 852.877 2645.31C851.615 2627.95 842.8 2613.73 825.047 2610.13C811.985 2607.46 810.901 2600.55 810.83 2590.01C809.8 2464.71 808.68 2339.42 807.08 2214.12C806.921 2201.89 809.675 2196.42 822.648 2192.63C846.337 2185.75 855.578 2159.81 844.631 2138.07C834.377 2117.69 809.035 2110.07 789.345 2124.59C775.643 2134.7 767.149 2133.61 753.803 2124.34C734.237 2110.74 708.327 2119.45 698.944 2139.89C689.187 2161.11 698.037 2186.34 720.82 2192.72C736.512 2197.13 738.218 2205.2 738.129 2218.49C737.702 2279.53 737.951 2340.58 737.951 2401.62L737.916 2401.65ZM510.02 2687.57C534.473 2686.1 548.174 2676.38 552.332 2656.56C556.686 2635.86 548.867 2618.94 528.857 2611.96C515.884 2607.44 511.779 2601.79 511.921 2588.37C513.2 2464.55 513.965 2340.72 514.391 2216.91C514.427 2203.99 517.039 2197.23 531.114 2193.11C554.252 2186.34 563.368 2162.44 554.038 2140.63C545.206 2119.95 519.029 2110.42 499.57 2124.11C485.033 2134.34 475.846 2133.61 461.824 2123.61C443.485 2110.51 417.983 2118.65 408.191 2137.6C397.209 2158.87 406.272 2185.67 429.801 2192.38C444.871 2196.68 445.511 2204.61 445.386 2216.68C444.196 2339.69 443.2 2462.72 442.436 2585.73C442.347 2598.77 440.872 2607.05 424.985 2611.35C404.3 2616.95 397.422 2635.08 401.243 2655.58C404.957 2675.54 419.494 2690.33 438.278 2685.46C464.757 2678.58 489.227 2666.03 509.984 2687.55L510.02 2687.57ZM95.1007 1477.46C94.9585 1508.04 116.071 1522.17 141.465 1509.91C149.96 1505.8 154.634 1504.79 161.707 1512.87C178.038 1531.53 194.192 1533.01 208.764 1519.34C224.581 1504.49 227.602 1472.96 210.773 1460.96C196.076 1450.48 197.178 1439.89 200.163 1426.19C217.934 1344.55 235.616 1262.89 253.157 1181.2C255.769 1169.06 258.861 1161.04 274.126 1157.08C301.227 1150.06 310.557 1112.23 292.679 1091.93C276.863 1073.97 260.851 1090.15 244.964 1090.03C230.054 1089.92 222.359 1060.37 198.759 1070.54C173.098 1081.59 165.954 1121.06 188.31 1139.15C198.351 1147.27 200.27 1154.04 197.764 1165.34C178.873 1250.86 160.214 1336.41 141.856 1422.03C139.795 1431.68 136.845 1437.12 125.774 1439.21C104.324 1443.28 96.7001 1459.77 95.1007 1477.47V1477.46ZM978.66 1081.94C963.661 1083.21 955.149 1093.89 952.021 1109.44C947.827 1130.23 958.917 1153.31 978.749 1157.26C994.281 1160.33 997.267 1168.9 999.861 1181.04C1017.4 1263.48 1035.01 1345.92 1052.91 1428.27C1055.75 1441.31 1056.89 1450.34 1042.8 1460.36C1025.59 1472.6 1027.78 1493.06 1037.54 1510.63C1045.8 1525.51 1062.13 1535.92 1075.48 1525.67C1092.91 1512.29 1106.17 1503.51 1128.11 1515.27C1135.97 1519.48 1146.05 1510.69 1151.63 1502.03C1165.33 1480.71 1155.04 1446.45 1130.69 1440.46C1115.75 1436.78 1112.37 1429.44 1109.65 1416.55C1092.39 1334.88 1074.55 1253.33 1056.39 1171.87C1053.25 1157.79 1051.79 1147.68 1066.48 1137.12C1083.33 1125.02 1080.88 1094.1 1065.45 1078.59C1050.49 1063.55 1037.18 1064.92 1017.24 1085.46C1010.7 1092.22 1005.78 1092.66 998.83 1087.7C993.481 1083.88 987.439 1081.86 978.66 1081.94ZM203.984 1620.23C203.486 1607.77 200.323 1595.65 188.559 1587.49C171.356 1575.55 158.259 1594.55 144.54 1593.75C130.199 1592.91 121.224 1568.73 100.894 1577.28C87.1393 1583.07 79.5333 1594.03 77.6851 1608.64C75.6592 1624.8 78.3603 1640.38 94.0877 1648.11C104.715 1653.32 106.918 1658.45 105.426 1669.9C94.2655 1755.96 83.8517 1842.13 73.6155 1928.31C72.1405 1940.76 71.7673 1950.63 55.1514 1953.74C39.4595 1956.67 33.0086 1971.37 31.4625 1986.72C30.0231 2001.02 33.3818 2013.96 45.6794 2023.08C62.5619 2035.59 75.5525 2018.58 89.8938 2017.8C104.342 2017 112.623 2043.36 133.344 2034.75C147.188 2029 154.971 2018.53 157.122 2003.89C159.343 1988.75 158.046 1972.41 143.936 1965.32C128.333 1957.47 129.594 1947.23 131.229 1933.96C141.608 1849.4 151.737 1764.83 161.44 1680.19C162.791 1668.44 166.452 1662.15 178.838 1658.6C196.36 1653.58 202.704 1638.51 203.984 1620.23ZM1094.67 1995.55C1094.56 2016.88 1112.46 2041.56 1127.17 2035.25C1150.83 2025.12 1171.33 2019.68 1197.64 2026.21C1211.85 2029.73 1220.42 2010.66 1221.22 1995.13C1222.19 1976.06 1216.53 1958.18 1196.27 1953.49C1182.35 1950.27 1180.56 1942.95 1179.26 1931.91C1169.38 1847.31 1159.52 1762.68 1148.91 1678.14C1147.11 1663.8 1146.51 1654.14 1162.18 1645.45C1179.81 1635.65 1180.02 1603.52 1165.81 1587.19C1152.35 1571.73 1136.59 1571.34 1118.47 1588.86C1109.33 1597.69 1104.07 1594.16 1096 1588.86C1079.71 1578.13 1065.17 1581.56 1054.67 1597.8C1041.09 1618.86 1049.94 1649.37 1073.58 1658.49C1084.9 1662.86 1089.82 1667.66 1091.2 1679.92C1100.68 1763.76 1110.88 1847.54 1121.17 1931.29C1122.93 1945.58 1127.3 1958.69 1107.86 1966.23C1097.18 1970.37 1094.99 1983.84 1094.69 1995.59L1094.67 1995.55ZM625.194 907.682C532.855 909.371 440.321 908.766 349.565 929.985C334.672 933.468 320.171 939.297 323.121 958.063C326.142 977.345 342.03 979.833 358.272 979.211C363.053 979.033 367.798 977.753 372.507 976.776C428.575 965.314 485.371 960.64 542.416 958.561C559.388 957.939 578.58 952.767 583.059 979.068C584.267 986.124 592.992 989.251 600.705 989.358C615.97 989.571 631.236 989.553 646.501 989.429C657.377 989.34 666.405 984.027 668.253 973.791C671.327 956.766 682.381 957.832 694.856 958.223C754.354 960.125 813.549 964.585 872.034 976.261C883.798 978.606 895.616 981.805 907.647 977.238C917.439 973.506 924.281 967.126 924.921 956.251C925.56 945.286 919.518 937.929 909.78 933.948C903.88 931.549 897.535 930.145 891.28 928.705C803.597 908.695 714.28 909.548 625.158 907.665L625.194 907.682ZM575.932 679.645C562.142 660.506 546.237 650.11 523.757 667.721C521.144 669.764 514.48 667.65 510.09 666.228C492.604 660.577 477.996 650.678 470.746 633.245C464.579 618.424 453.365 611.085 438.988 606.304C426.655 602.199 421.146 602.768 424.079 618.619C431.347 658 454.627 683.697 490.702 697.629C581.459 732.674 672.66 732.389 763.364 697.363C799.652 683.341 822.168 656.774 829.383 617.766C831.605 605.789 830.272 600.671 816.588 605.451C801.696 610.658 789.86 617.713 782.13 632.907C766.26 664.131 747.725 670.902 714.955 660.648C702.711 656.809 693.15 661.483 684.922 670.529C681.723 674.047 678.436 682.933 672.66 675.273C653.947 650.518 639.695 664.415 626.295 681.013C606.356 656.258 597.4 656.116 575.915 679.645H575.932ZM498.859 3553.96C494.95 3553.96 492.533 3553.96 490.116 3553.96C459.869 3554.16 445.599 3566.37 445.99 3591.76C446.364 3616.41 460.012 3628.03 488.978 3628.24C497.011 3628.3 505.079 3627.85 513.076 3628.31C530.865 3629.33 542.327 3620.99 547.89 3604.68C553.239 3588.93 550.129 3574.61 538.435 3562.4C526.653 3550.09 511.37 3555.26 498.859 3553.98V3553.96ZM757.251 3553.98C753.234 3553.98 749.218 3553.94 745.202 3553.98C717.514 3554.28 702.373 3567.36 702.32 3591C702.285 3614.74 717.426 3628 744.988 3628.23C753.821 3628.3 762.689 3628.49 771.503 3628.12C793.983 3627.18 806.69 3613.71 806.672 3591.23C806.672 3564.59 792.579 3553.98 757.251 3553.98ZM776.141 2706.11C754.176 2706.73 737.88 2725.07 739 2747.96C740.03 2769.27 757.73 2786.31 778.149 2785.69C799.119 2785.05 817.175 2764.88 815.895 2743.55C814.633 2722.79 796.329 2705.52 776.159 2706.09L776.141 2706.11ZM513.503 2746.2C513.734 2724.16 498.291 2707.1 477.232 2706.16C456.209 2705.2 437.14 2723.75 436.909 2745.38C436.678 2766.55 456.013 2786.4 476.414 2785.95C496.798 2785.49 513.289 2767.83 513.52 2746.22L513.503 2746.2ZM78.3426 2125.85C78.3426 2125.71 78.3426 2125.56 78.3604 2125.42C83.9583 2125.42 89.5739 2125.58 95.1717 2125.39C114.329 2124.71 125.969 2114.3 125.72 2095.64C125.489 2078.31 114.436 2067.79 96.2913 2067.35C82.7142 2067.01 68.9239 2066.32 55.5601 2068.16C40.0282 2070.31 31.9423 2081.44 32.0845 2096.9C32.2266 2111.37 40.4014 2121.14 54.4761 2124.34C62.1532 2126.08 70.3812 2125.42 78.3604 2125.85H78.3426ZM922.664 3594.03C922.592 3581.88 916.799 3571.57 902.156 3567.75C890.569 3564.73 878.929 3561.89 867.271 3559.1C848.416 3554.58 837.807 3564.05 833.897 3581.04C829.934 3598.28 836.954 3610.79 854.6 3615.77C865.352 3618.81 876.228 3621.46 887.175 3623.75C907.096 3627.91 921.882 3616.27 922.646 3594.03H922.664ZM420.524 3586.87C419.032 3575.14 414.358 3564.43 401.829 3559.33C390.616 3554.76 343.736 3567.16 336.592 3576.55C328.577 3587.07 327.44 3598.53 334.068 3610.22C349.085 3636.7 370.037 3620.92 389.283 3617.95C406.929 3615.24 419.352 3607.45 420.524 3586.87ZM1165.99 2125.01C1165.99 2125.16 1165.99 2125.3 1165.99 2125.44C1171.58 2125.44 1177.2 2125.72 1182.78 2125.39C1201.51 2124.27 1213.5 2115.01 1213.06 2095.55C1212.65 2077.56 1201.37 2068.09 1183.61 2067.38C1170.84 2066.87 1157.9 2066.35 1145.25 2067.81C1128.68 2069.73 1119.34 2080.32 1119.64 2097.11C1119.9 2112.75 1129.11 2122.33 1144.43 2124.85C1151.43 2126.01 1158.79 2125.05 1165.99 2125.05V2125.01ZM275.459 976.812C255.254 977.202 239.277 993.481 239.242 1013.72C239.206 1034.85 256.693 1051.38 278 1050.35C298.046 1049.39 314.165 1032.03 313.312 1012.32C312.459 992.308 295.505 976.421 275.459 976.794V976.812ZM1013.42 1013.86C1013.47 993.179 997.533 977.025 976.936 976.883C956.127 976.741 940.328 992.415 940.15 1013.4C939.973 1034.19 955.789 1050.28 976.492 1050.37C997.124 1050.45 1013.37 1034.41 1013.42 1013.86ZM626.74 803.1C639.606 800.701 660.007 810.493 665.676 788.226C669.053 775.004 671.541 758.264 652.366 751.866C627.202 743.478 586.719 751.706 582.241 765.781C581.761 767.292 581.708 768.944 581.459 770.526C577.478 796.312 586.542 803.118 626.722 803.1H626.74ZM622.955 1603.75C657.59 1603.75 663.988 1602.23 665.961 1588.76C667.987 1574.93 671.292 1558.78 651.957 1552.77C625.674 1544.59 586.453 1552.77 582.117 1567.04C581.655 1568.55 581.655 1570.2 581.424 1571.78C577.834 1596.98 586.595 1603.74 622.972 1603.75H622.955ZM623.328 1696.55C610.355 1698.94 591.038 1689.45 583.041 1709.99C579.042 1720.26 577.23 1734.48 586.95 1741.59C606.658 1756 630.241 1747.66 652.152 1747.27C661.838 1747.1 666.032 1738.48 666.973 1728.36C669.39 1702.19 662.3 1696.54 623.328 1696.54V1696.55ZM622.635 1624.28C609.804 1626.79 590.291 1617.08 582.81 1638.14C579.167 1648.4 577.123 1662.63 587.395 1669.52C607.405 1682.92 630.756 1675.9 652.668 1674.5C662.406 1673.88 666.245 1665.3 667.027 1655.2C669.017 1629.29 662.477 1624.3 622.635 1624.3V1624.28ZM625.318 1820.92C638.469 1818.18 659.794 1828.72 665.783 1805.33C669.159 1792.16 671.363 1775.49 651.584 1769.91C623.559 1762.01 586.115 1769.82 581.957 1784.34C581.53 1785.85 581.584 1787.51 581.37 1789.09C578.118 1814.27 586.773 1820.86 625.318 1820.92ZM625.265 885.753C638.042 883.034 657.697 893.377 665.339 872.407C669.017 862.313 671.363 847.812 661.589 840.686C641.881 826.309 618.299 834.039 596.369 835.017C586.702 835.443 582.454 844.187 581.299 854.085C578.385 879.462 586.577 885.789 625.247 885.771L625.265 885.753ZM778.771 3529.15C798.195 3529.79 815.468 3512.73 815.557 3492.81C815.646 3473.81 800.008 3457.55 781.064 3456.95C761.907 3456.35 745.717 3471.22 744.526 3490.54C743.282 3510.51 759.241 3528.51 778.771 3529.15ZM508.082 3492.97C508.242 3473.23 493.599 3457.61 474.282 3456.91C454.112 3456.19 437.602 3472.3 437.585 3492.76C437.585 3511.84 453.17 3528.55 471.634 3529.21C491.324 3529.9 507.905 3513.41 508.082 3492.97ZM79.9953 2195.23C97.1444 2195.71 111.148 2190.32 111.237 2170.86C111.326 2153.34 99.1169 2146.3 82.5365 2145.91C65.1742 2145.5 51.7571 2151.4 51.4728 2170.67C51.224 2188.51 63.1838 2195.48 79.9775 2195.24L79.9953 2195.23ZM1136.43 2371.53C1139.4 2370.06 1145.05 2369.1 1147.41 2365.77C1157.17 2352.06 1162.06 2335.99 1166.3 2319.93C1167.76 2314.4 1163.94 2309.19 1159.21 2305.71C1153.05 2301.18 1146.54 2299.36 1139.33 2303.75C1131.37 2308.61 1114.5 2348.61 1117.22 2357.24C1119.9 2365.7 1126.28 2369.88 1136.43 2371.53ZM101.925 2249.62H102.102C102.102 2245.61 101.996 2241.61 102.12 2237.59C102.529 2225.01 99.0814 2214.33 84.6513 2213.76C70.2034 2213.19 65.7785 2223.46 65.583 2236.15C65.423 2246.57 64.7478 2257.05 65.6186 2267.39C66.5249 2278.16 72.5137 2285.57 84.2426 2285.25C95.936 2284.93 101.178 2277.45 101.854 2266.47C102.209 2260.87 101.907 2255.26 101.907 2249.64L101.925 2249.62ZM1165.08 2195.26C1181.34 2195.1 1193.97 2189.31 1193.89 2171.06C1193.8 2151.69 1180.59 2145.72 1163.28 2145.95C1146.92 2146.18 1134.69 2152.33 1134.55 2170.44C1134.39 2190.32 1147.89 2195.51 1165.08 2195.26ZM1179.08 2249.13C1179.08 2249.13 1179.17 2249.13 1179.22 2249.13C1179.22 2245.13 1179.12 2241.11 1179.24 2237.11C1179.62 2224.53 1176.26 2213.87 1161.61 2213.73C1147.2 2213.58 1143.01 2223.73 1143.26 2236.54C1143.47 2246.94 1143.22 2257.37 1143.79 2267.75C1144.43 2279.16 1150.95 2285.52 1162.38 2285.22C1172.77 2284.93 1178.28 2278.47 1178.99 2268.32C1179.44 2261.96 1179.08 2255.52 1179.08 2249.13ZM1030.98 2233.74C1032.17 2242.09 1028.74 2252.54 1036.58 2260.04C1043.33 2266.51 1050.86 2266.17 1057.55 2259.2C1064.92 2251.51 1064.64 2213.73 1056.85 2207.15C1049.87 2201.23 1042.05 2200.98 1035.56 2207.72C1028.74 2214.81 1031.76 2224.26 1030.98 2233.72V2233.74ZM1068.14 2150.19C1069.59 2137.6 1071.18 2125.76 1056.92 2123.73C1041.55 2121.55 1038.34 2133.33 1038.34 2145.2C1038.34 2158.74 1025.42 2179.73 1047.95 2182.95C1072.95 2186.52 1063.96 2161.53 1068.14 2150.21V2150.19ZM176.741 2146.27C177.736 2154.21 178.554 2162.21 179.78 2170.12C181.184 2179.25 186.284 2184.97 195.987 2184.05C205.725 2183.12 209.706 2176.48 209.102 2167.27C208.516 2158.49 207.289 2149.75 206.188 2141.02C204.837 2130.49 200.839 2121.3 188.292 2123.59C176.03 2125.83 175.195 2135.92 176.759 2146.27H176.741ZM304.124 3604.88C302.4 3590.85 295.185 3582.43 280.56 3583C267.071 3583.53 260.034 3591.88 259.981 3604.88C259.927 3618.86 267.107 3628.07 281.821 3628.1C296.66 3628.15 302.667 3618.38 304.124 3604.86V3604.88ZM993.144 3605.57C991.669 3592.01 985.609 3582.66 970.539 3583.02C957.193 3583.34 949.356 3591.24 948.894 3604.08C948.396 3617.83 955.647 3627.32 970.166 3628.1C985.2 3628.9 991.296 3619.16 993.161 3605.59L993.144 3605.57ZM214.042 2239.78C214.042 2233.29 214.096 2231.69 214.042 2230.11C213.616 2218.56 216.815 2204.47 198.973 2203.33C187.937 2202.62 182.641 2210.33 183.956 2220.18C185.964 2235.25 174.235 2254.87 196.147 2263.86C202.598 2266.51 209.262 2261.97 211.537 2255.81C213.936 2249.36 213.758 2241.95 214.06 2239.76L214.042 2239.78Z" fill="#26A69A"/>
<path d="M99.4528 2370.09C93.4817 2357.03 87.5106 2343.97 81.5395 2330.91C76.0483 2318.86 77.5766 2308.59 90.6383 2303.15C104.535 2297.37 111.324 2306.15 115.98 2317.6C118.699 2324.26 121.258 2331 123.835 2337.71C133.147 2362.15 126.678 2370.66 99.3462 2370.02L99.4706 2370.09H99.4528Z" fill="#F9F9FB"/>
<path d="M626.19 612.08C602.768 644.104 587.04 643.251 569.269 608.668C561.325 608.704 560.703 616.719 556.598 620.806C546.149 631.22 534.349 636.551 519.634 631.575C506.199 627.026 500.726 616.932 502.574 603.39C503.889 593.741 499.802 590.471 491.076 589.529C484.732 588.854 478.512 586.899 472.221 585.655C425.679 576.592 393.122 550.397 378.781 504.957C351.36 418.057 345.389 329.948 371.459 241.644C395.344 160.715 449.865 108.184 529.231 82.4515C610.8 56.0082 691.072 61.1618 767.559 101.182C845.396 141.913 881.791 210.243 894.142 294.673C903.401 357.884 896.292 419.887 882.377 481.215C869.102 539.664 835.018 578.547 772.499 587.379C760.966 589.014 747.975 588.019 751.298 609.433C754.479 629.869 729.902 640.354 709.074 630.26C698.589 625.178 693.205 615.03 685.936 606.003C664.38 643.375 652.136 644.228 626.208 612.045L626.19 612.08ZM415.78 459.357C414.874 506.539 445.209 541.174 487.807 541.636C529.338 542.081 563.511 506.396 564.222 461.862C564.951 415.871 535.629 384.292 491.396 383.403C448.266 382.55 416.651 414.307 415.78 459.374V459.357ZM837.399 462.431C837.665 416.831 807.65 384.132 764.875 383.421C719.008 382.657 689.846 412.903 689.917 461.187C689.988 506.805 722.296 541.547 764.715 541.654C806.264 541.743 837.132 508.12 837.399 462.431ZM626.972 485.409C606.89 486.226 580.465 527.899 587.875 545.244C591.927 554.716 600.191 560.758 608.739 555.373C620.574 547.927 629.051 545.759 641.011 555.533C648.315 561.504 657.893 557.648 663.189 548.389C670.866 534.972 664.202 523.51 657.804 512.421C650.465 499.714 640.673 489.39 626.972 485.409Z" fill="#F9F9FB"/>
<path d="M673.817 1196.44C668.823 1236.16 669.712 1237.26 702.73 1252.94C726.401 1264.17 751.388 1269.13 777.209 1271.08C805.589 1273.23 829.474 1268.65 842.18 1237.9C848.613 1222.35 864.412 1219.81 879.41 1226.17C895.511 1233 898.816 1246.27 893.503 1262.25C882.094 1296.53 843.406 1323.1 801.253 1325.11C779.519 1326.15 757.998 1324.48 736.531 1320.18C715.277 1315.92 694.982 1308.58 674.368 1301.74C667.206 1346.54 671.329 1354.3 710.639 1369.64C734.825 1379.08 760.06 1383.57 786.006 1384.28C810.299 1384.94 829.936 1378.65 840.652 1353.75C848.275 1336.05 863.558 1331.01 880.636 1339.5C897.27 1347.78 899.456 1362.58 892.046 1378.61C876.674 1411.86 850.319 1431.57 814.315 1436.3C772.997 1441.72 732.372 1436.71 693.649 1420.91C678.26 1414.64 671.009 1414.08 671.329 1434.75C671.969 1474.97 670.938 1474.93 709.608 1488.51C731.857 1496.33 754.906 1498.85 778.311 1499.88C805.163 1501.06 826.773 1495.17 839.71 1467.82C848.471 1449.32 866.544 1447.87 883.355 1456.47C901.624 1465.82 901.162 1481.26 892.063 1497.54C868.552 1539.58 829.954 1554.35 784.833 1554.14C738.61 1553.92 692.974 1546.73 652.296 1523.61C632.961 1512.62 618.407 1514.65 599.676 1524.12C549.793 1549.38 496.231 1559.17 440.625 1551.65C404.354 1546.74 376.08 1528.25 359.34 1494.41C351.805 1479.18 353.494 1465.46 368.546 1456.89C383.082 1448.61 402.524 1447.99 409.579 1463.13C429.962 1506.92 466.109 1501.29 502.379 1497.84C523.331 1495.85 543.057 1489.01 562.534 1481.1C572.948 1476.87 576.734 1470.88 577.018 1459.45C578.084 1416.48 578.635 1416.79 537.868 1428.41C505.845 1437.54 473.004 1440.88 439.967 1436.58C404.034 1431.91 377.111 1413.14 361.508 1379.91C353.724 1363.35 354.844 1347.5 373.148 1338.98C390.582 1330.88 405.065 1337.17 412.724 1354.68C422.57 1377.17 440.394 1384.69 463.105 1384.26C498.114 1383.59 531.862 1377.44 562.588 1359.51C574.032 1352.83 582.971 1318.64 575.845 1308.31C570.336 1300.33 564.276 1307.12 558.909 1308.84C523.438 1320.24 487.381 1328.02 449.901 1324.95C412.316 1321.87 382.069 1305.73 363.712 1271.6C355.111 1255.6 351.716 1239.02 370.785 1227.33C386.601 1217.63 403.572 1223.85 413.773 1243.91C423.28 1262.64 438.084 1270.89 458.272 1271.24C494.294 1271.88 527.97 1263.78 560.722 1248.25C582.314 1237.99 577.071 1220.95 575.721 1205.12C574.814 1194.38 565.911 1200.58 560.669 1202.2C531.24 1211.34 501.082 1215.64 470.374 1215.67C427.883 1215.71 393.461 1200.17 372.171 1161.74C363.196 1145.51 360.709 1129.18 380.079 1117.95C396.268 1108.55 413.542 1114.71 423.28 1134.67C432.095 1152.71 445.814 1161.22 465.078 1162.06C499.483 1163.53 532.075 1156.3 563.334 1141.94C572.362 1137.8 576.52 1132.49 576.947 1121.96C578.12 1092.78 578.653 1092.62 549.49 1098.4C525.659 1103.13 501.597 1104.87 477.5 1102.9C442.384 1100.02 415.035 1083.6 396.748 1053.07C387.898 1038.3 385.73 1023.48 402.559 1013.22C418.5 1003.52 435.987 1005.65 444.499 1022.22C460.155 1052.66 485.088 1056.53 513.771 1051.09C539.29 1046.26 567.35 1049.35 584.144 1019.62C593.705 1002.69 660.009 1011.2 670.991 1028.74C675.505 1035.94 681.387 1038.07 688.087 1040.38C709.501 1047.79 731.68 1051.79 754.195 1052.84C776.409 1053.87 794.678 1047.45 806.229 1025.65C815.985 1007.24 835.747 1002.76 851.065 1013.53C868.712 1025.95 864.021 1041.3 854.602 1055.84C835.889 1084.7 808.841 1100.39 774.597 1102.99C747.976 1105.01 721.674 1101.99 695.426 1097.26C688.087 1095.95 676.323 1085.61 673.23 1098.1C670.316 1109.92 664.611 1127.42 679.166 1135.77C717.089 1157.52 758.247 1167.3 802.017 1159.55C815.399 1157.19 823.378 1146.77 829.687 1134.69C840.119 1114.7 856.681 1108.46 872.835 1117.93C892.152 1129.29 889.344 1145.8 880.548 1161.88C864.021 1192.12 838.164 1209.65 803.901 1213.97C759.154 1219.62 716.183 1210.34 673.852 1196.41L673.817 1196.44Z" fill="#F9F9FB"/>
<path d="M475.953 2083.77C445.103 2083.77 423.635 2066.96 422.64 2036.87C421.663 2007.1 412.226 1980.3 402.186 1953.24C390.883 1922.78 393.513 1894.12 417.504 1871C442.242 1847.15 471.937 1845.39 502.486 1858.88C518.764 1866.07 535.131 1872.29 552.813 1874.57C567.297 1876.42 585.103 1883.22 582.278 1856.49C582.135 1855.07 582.971 1853.19 583.966 1852.07C602.235 1831.61 626.137 1843.91 647.409 1841.96C660.843 1840.71 667.454 1850.79 666.779 1864.06C666.157 1876.1 672.857 1876.63 682.027 1875.67C706.177 1873.15 728.836 1865.58 751.689 1857.67C810.085 1837.44 861.994 1873.55 856.521 1930.03C855.543 1940.18 851.349 1950.11 847.991 1959.92C840.456 1981.9 831.801 2003.42 830.913 2027.27C829.278 2071.68 798.605 2093.35 755.474 2081.01C739.871 2076.55 726.294 2067.79 713.073 2058.59C699.904 2049.42 687.056 2039.73 673.728 2030.81C642.291 2009.75 610.534 2010 579.079 2030.74C558.98 2044 539.467 2058.12 519.297 2071.22C506.289 2079.68 491.698 2084.09 475.953 2083.8V2083.77ZM807.97 1924.61C806.655 1908.56 799.404 1896.67 781.971 1895.89C764.769 1895.13 754.71 1905.33 753.911 1922.23C753.058 1939.96 761.854 1952.1 780.46 1952.51C797.947 1952.88 805.784 1941.28 807.97 1924.61ZM499.429 1924.41C497.936 1907.02 489.53 1895.91 472.31 1895.86C455.25 1895.8 445.316 1906.4 445.28 1923.37C445.245 1941.08 454.45 1952.9 473.163 1952.46C490.668 1952.03 497.936 1940.07 499.411 1924.4L499.429 1924.41Z" fill="#F9F9FB"/>
<path d="M743.282 2809.16C764.323 2831.89 788.563 2818.62 815.859 2809.84C835.159 2803.63 849.695 2822.15 853.854 2842.09C858.243 2863.15 850.851 2882.54 830.592 2889.75C813.46 2895.85 812.483 2905.36 812.625 2919.87C814.082 3053.32 815.148 3186.76 815.966 3320.2C816.055 3333.8 816.446 3342.95 833.204 3348.62C857.23 3356.74 865.032 3386.99 852.61 3409.43C840.046 3432.12 817.707 3436.5 793.645 3419.28C783.818 3412.24 777.652 3413.11 768.393 3419.97C744.935 3437.35 722.028 3433.01 709.411 3410.28C697.131 3388.16 705.092 3357.47 728.817 3349.33C744.526 3343.94 745.113 3335.64 745.042 3322.92C744.224 3187.86 743.602 3052.8 743.264 2917.74C743.229 2904.59 741.647 2896.38 726.115 2891.58C706.016 2885.38 696.633 2863.13 701.485 2842.25C705.945 2823.06 717.852 2811.44 743.264 2809.16H743.282Z" fill="#F9F9FB"/>
<path d="M505.043 3431.08C484.606 3406.44 459.567 3422.08 432.591 3428.84C413.167 3433.71 400.78 3416.89 396.213 3397.81C391.166 3376.77 400.176 3354.43 420.186 3348.33C436.038 3343.5 436.802 3334.9 436.891 3321.96C437.798 3186.9 439.006 3051.84 440.339 2916.78C440.463 2904.29 440.73 2895.78 424.22 2890.69C399.057 2882.96 390.953 2851.9 404.157 2828.25C416.046 2806.96 439.592 2802.41 461.575 2818.92C471.58 2826.42 478.014 2827.71 488.712 2819.74C510.588 2803.39 534.223 2808.08 546.361 2829.12C559.085 2851.17 551.799 2882.32 528.341 2890.61C511.316 2896.61 509.468 2905.78 509.433 2920.57C509.113 3054.03 508.366 3187.49 507.513 3320.95C507.425 3334.26 507.016 3344.25 524.414 3349.56C544.3 3355.62 553.078 3379.02 547.694 3399.43C542.647 3418.56 530.598 3429.87 505.025 3431.09L505.043 3431.08Z" fill="#F9F9FB"/>
<path d="M737.917 2401.65C737.917 2340.61 737.686 2279.57 738.095 2218.52C738.184 2205.23 736.496 2197.16 720.786 2192.76C698.004 2186.38 689.154 2161.14 698.91 2139.92C708.293 2119.49 734.221 2110.8 753.769 2124.37C767.115 2133.65 775.61 2134.73 789.311 2124.62C809.002 2110.09 834.343 2117.73 844.597 2138.11C855.526 2159.84 846.303 2185.77 822.614 2192.67C809.642 2196.43 806.887 2201.91 807.047 2214.15C808.629 2339.44 809.766 2464.74 810.797 2590.04C810.885 2600.58 811.97 2607.51 825.013 2610.16C842.749 2613.77 851.563 2627.99 852.843 2645.35C853.98 2660.79 847.334 2673.62 833.401 2681.51C818.563 2689.92 803.759 2688.9 790.84 2677.94C780.195 2668.93 772.127 2670.48 761.215 2678.42C739.855 2693.95 715.419 2688.21 703.655 2666.78C692.335 2646.15 701.078 2619.58 724.98 2611.69C739.428 2606.91 740.548 2599.3 740.476 2587.24C740.157 2525.39 740.317 2463.53 740.317 2401.69C739.499 2401.69 738.699 2401.69 737.882 2401.69L737.917 2401.65Z" fill="#F9F9FB"/>
<path d="M510.021 2687.57C489.282 2666.07 464.812 2678.6 438.315 2685.48C419.531 2690.36 404.994 2675.58 401.28 2655.6C397.459 2635.11 404.336 2616.97 425.022 2611.37C440.909 2607.07 442.402 2598.79 442.473 2585.75C443.237 2462.72 444.215 2339.71 445.423 2216.69C445.548 2204.63 444.89 2196.7 429.838 2192.4C406.309 2185.68 397.228 2158.89 408.228 2137.61C418.02 2118.65 443.504 2110.53 461.862 2123.63C475.883 2133.63 485.071 2134.36 499.607 2124.13C519.067 2110.44 545.243 2119.97 554.075 2140.65C563.387 2162.48 554.289 2186.36 531.151 2193.13C517.058 2197.25 514.464 2204.01 514.428 2216.93C514.002 2340.75 513.238 2464.58 511.958 2588.39C511.816 2601.81 515.921 2607.46 528.894 2611.98C548.922 2618.96 556.723 2635.86 552.369 2656.58C548.193 2676.39 534.51 2686.12 510.057 2687.59L510.021 2687.57Z" fill="#F9F9FB"/>
<path d="M95.1179 1477.46C96.7173 1459.77 104.341 1443.26 125.791 1439.2C136.862 1437.1 139.812 1431.66 141.874 1422.01C160.231 1336.39 178.891 1250.82 197.781 1165.33C200.287 1154.02 198.368 1147.25 188.327 1139.13C165.971 1121.04 173.133 1081.57 198.777 1070.52C222.377 1060.35 230.071 1089.91 244.981 1090.01C260.869 1090.12 276.88 1073.93 292.697 1091.91C310.574 1112.23 301.245 1150.04 274.144 1157.06C258.878 1161.03 255.786 1169.04 253.174 1181.18C235.634 1262.87 217.934 1344.53 200.181 1426.17C197.195 1439.87 196.093 1450.46 210.79 1460.95C227.601 1472.94 224.598 1504.47 208.782 1519.32C194.209 1533.01 178.055 1531.52 161.724 1512.86C154.651 1504.77 149.977 1505.78 141.483 1509.89C116.088 1522.15 94.9757 1508.04 95.1179 1477.44V1477.46Z" fill="#F9F9FB"/>
<path d="M978.676 1081.95C987.455 1081.84 993.497 1083.88 998.846 1087.7C1005.79 1092.66 1010.72 1092.2 1017.26 1085.46C1037.2 1064.92 1050.49 1063.55 1065.47 1078.59C1080.9 1094.08 1083.35 1125 1066.5 1137.12C1051.82 1147.68 1053.26 1157.79 1056.41 1171.87C1074.59 1253.35 1092.41 1334.9 1109.67 1416.56C1112.39 1429.44 1115.78 1436.78 1130.71 1440.46C1155.05 1446.45 1165.34 1480.73 1151.64 1502.03C1146.06 1510.71 1135.99 1519.5 1128.13 1515.27C1106.18 1503.51 1092.93 1512.27 1075.49 1525.67C1062.15 1535.92 1045.82 1525.49 1037.55 1510.63C1027.78 1493.06 1025.59 1472.59 1042.81 1460.36C1056.9 1450.34 1055.75 1441.33 1052.92 1428.27C1035.01 1345.9 1017.42 1263.48 999.877 1181.04C997.3 1168.9 994.315 1160.33 978.765 1157.26C958.932 1153.33 947.843 1130.23 952.037 1109.44C955.183 1093.89 963.695 1083.21 978.676 1081.95Z" fill="#F9F9FB"/>
<path d="M204.002 1620.25C202.723 1638.51 196.361 1653.58 178.856 1658.61C166.47 1662.17 162.809 1668.46 161.458 1680.2C151.755 1764.83 141.626 1849.42 131.248 1933.97C129.613 1947.25 128.351 1957.47 143.954 1965.34C158.064 1972.45 159.361 1988.76 157.14 2003.9C154.99 2018.55 147.206 2029.03 133.362 2034.77C112.659 2043.37 104.378 2017.04 89.912 2017.82C75.5885 2018.6 62.5979 2035.61 45.6976 2023.1C33.4 2013.98 30.0235 2001.04 31.4807 1986.74C33.0268 1971.36 39.4955 1956.69 55.1696 1953.75C71.7855 1950.64 72.1586 1940.78 73.6336 1928.32C83.8698 1842.13 94.3014 1755.98 105.444 1669.92C106.919 1658.47 104.733 1653.34 94.1059 1648.13C78.3786 1640.42 75.6774 1624.83 77.7033 1608.66C79.5337 1594.03 87.1397 1583.07 100.912 1577.29C121.242 1568.75 130.217 1592.93 144.558 1593.77C158.26 1594.57 171.357 1575.57 188.577 1587.51C200.341 1595.67 203.505 1607.79 204.002 1620.25Z" fill="#F9F9FB"/>
<path d="M1094.69 1995.55C1094.99 1983.82 1097.18 1970.33 1107.86 1966.21C1127.3 1958.68 1122.93 1945.58 1121.17 1931.27C1110.88 1847.52 1100.7 1763.75 1091.21 1679.9C1089.82 1667.64 1084.9 1662.84 1073.58 1658.47C1049.94 1649.34 1041.09 1618.82 1054.67 1597.78C1065.15 1581.54 1079.69 1578.11 1096 1588.84C1104.09 1594.16 1109.33 1597.69 1118.47 1588.84C1136.59 1571.32 1152.36 1571.7 1165.81 1587.17C1180.01 1603.51 1179.81 1635.64 1162.18 1645.43C1146.53 1654.13 1147.11 1663.8 1148.91 1678.13C1159.52 1762.64 1169.38 1847.27 1179.26 1931.9C1180.56 1942.93 1182.34 1950.25 1196.27 1953.47C1216.54 1958.16 1222.2 1976.06 1221.22 1995.11C1220.42 2010.64 1211.87 2029.71 1197.64 2026.19C1171.34 2019.67 1150.83 2025.1 1127.17 2035.23C1112.46 2041.54 1094.56 2016.86 1094.67 1995.53L1094.69 1995.55Z" fill="#F9F9FB"/>
<path d="M625.231 907.664C714.353 909.566 803.67 908.713 891.353 928.723C897.59 930.144 903.952 931.548 909.852 933.965C919.591 937.946 925.633 945.303 924.993 956.268C924.354 967.144 917.494 973.523 907.72 977.255C895.689 981.84 883.889 978.641 872.107 976.278C813.622 964.602 754.409 960.142 694.929 958.24C682.454 957.849 671.418 956.783 668.326 973.808C666.478 984.044 657.432 989.375 646.574 989.446C631.309 989.571 616.043 989.588 600.778 989.375C593.047 989.268 584.322 986.141 583.131 979.086C578.653 952.802 559.46 957.956 542.489 958.578C485.426 960.675 428.63 965.349 372.58 976.793C367.853 977.753 363.108 979.032 358.345 979.228C342.085 979.85 326.215 977.362 323.194 958.08C320.244 939.296 334.727 933.485 349.637 930.002C440.394 908.801 532.928 909.406 625.284 907.682L625.231 907.664Z" fill="#F9F9FB"/>
<path d="M575.968 679.645C597.453 656.116 606.41 656.24 626.349 681.013C639.748 664.415 654.001 650.518 672.714 675.273C678.507 682.932 681.777 674.029 684.976 670.528C693.204 661.483 702.765 656.809 715.009 660.647C747.779 670.901 766.332 664.131 782.184 632.907C789.896 617.713 801.749 610.658 816.641 605.451C830.325 600.67 831.64 605.788 829.437 617.766C822.222 656.773 799.706 683.341 763.417 697.362C672.731 732.389 581.513 732.673 490.756 697.629C454.663 683.696 431.4 658.017 424.132 618.619C421.2 602.767 426.709 602.199 439.042 606.304C453.419 611.084 464.632 618.441 470.799 633.244C478.049 650.678 492.657 660.576 510.144 666.228C514.533 667.649 521.198 669.764 523.81 667.72C546.29 650.109 562.196 660.505 575.986 679.645H575.968Z" fill="#F9F9FB"/>
<path d="M498.877 3553.98C511.37 3555.24 526.671 3550.09 538.453 3562.4C550.146 3574.63 553.256 3588.93 547.907 3604.68C542.362 3620.99 530.882 3629.33 513.094 3628.31C505.079 3627.85 497.028 3628.31 488.996 3628.24C460.029 3628.01 446.381 3616.41 446.008 3591.76C445.617 3566.37 459.887 3554.16 490.133 3553.96C492.55 3553.96 494.949 3553.96 498.877 3553.96V3553.98Z" fill="#F9F9FB"/>
<path d="M757.286 3553.98C792.615 3553.98 806.707 3564.61 806.707 3591.23C806.707 3613.71 794.019 3627.18 771.538 3628.12C762.706 3628.49 753.856 3628.3 745.024 3628.23C717.461 3627.99 702.302 3614.76 702.356 3591C702.391 3567.36 717.55 3554.28 745.237 3553.98C749.253 3553.94 753.27 3553.98 757.286 3553.96V3553.98Z" fill="#F9F9FB"/>
<path d="M776.179 2706.12C796.349 2705.56 814.671 2722.81 815.915 2743.59C817.194 2764.91 799.139 2785.06 778.169 2785.72C757.75 2786.34 740.05 2769.3 739.019 2747.99C737.9 2725.1 754.196 2706.76 776.161 2706.14L776.179 2706.12Z" fill="#F9F9FB"/>
<path d="M513.519 2746.22C513.288 2767.83 496.797 2785.51 476.413 2785.95C456.012 2786.41 436.677 2766.55 436.908 2745.38C437.139 2723.75 456.208 2705.2 477.231 2706.16C498.289 2707.12 513.733 2724.16 513.502 2746.2L513.519 2746.22Z" fill="#F9F9FB"/>
<path d="M78.3598 2125.87C70.3806 2125.44 62.1526 2126.1 54.4755 2124.36C40.4008 2121.16 32.226 2111.38 32.0839 2096.92C31.9417 2081.46 40.0098 2070.33 55.5595 2068.18C68.9233 2066.33 82.7136 2067.03 96.2907 2067.36C114.435 2067.81 125.506 2078.33 125.72 2095.66C125.968 2114.32 114.328 2124.73 95.1712 2125.4C89.5733 2125.6 83.9755 2125.44 78.3598 2125.44C78.3598 2125.58 78.3598 2125.72 78.342 2125.87H78.3598Z" fill="#F9F9FB"/>
<path d="M922.683 3594.05C921.919 3616.29 907.133 3627.93 887.212 3623.77C876.282 3621.47 865.389 3618.83 854.637 3615.79C836.973 3610.79 829.953 3598.3 833.934 3581.06C837.844 3564.07 848.453 3554.58 867.308 3559.12C878.948 3561.91 890.588 3564.75 902.193 3567.77C916.818 3571.59 922.629 3581.9 922.7 3594.05H922.683Z" fill="#F9F9FB"/>
<path d="M420.525 3586.89C419.335 3607.47 406.913 3615.24 389.284 3617.97C370.038 3620.94 349.086 3636.72 334.069 3610.24C327.44 3598.55 328.578 3587.09 336.592 3576.57C343.736 3567.18 390.617 3554.78 401.83 3559.35C414.359 3564.45 419.033 3575.16 420.525 3586.89Z" fill="#F9F9FB"/>
<path d="M1165.99 2125.03C1158.79 2125.03 1151.43 2125.99 1144.43 2124.84C1129.11 2122.31 1119.92 2112.75 1119.64 2097.1C1119.34 2080.3 1128.69 2069.71 1145.25 2067.79C1157.88 2066.33 1170.84 2066.85 1183.62 2067.36C1201.37 2068.09 1212.67 2077.55 1213.06 2095.53C1213.49 2114.99 1201.49 2124.27 1182.78 2125.37C1177.2 2125.71 1171.58 2125.42 1165.99 2125.42C1165.99 2125.28 1165.99 2125.14 1165.99 2125V2125.03Z" fill="#F9F9FB"/>
<path d="M275.475 976.829C295.539 976.438 312.492 992.343 313.328 1012.35C314.163 1032.06 298.044 1049.42 278.016 1050.38C256.709 1051.41 239.24 1034.89 239.258 1013.76C239.293 993.516 255.252 977.238 275.475 976.847V976.829Z" fill="#F9F9FB"/>
<path d="M1013.44 1013.88C1013.39 1034.43 997.144 1050.47 976.511 1050.38C955.808 1050.3 939.992 1034.23 940.169 1013.42C940.347 992.433 956.146 976.759 976.956 976.901C997.552 977.044 1013.49 993.197 1013.44 1013.88Z" fill="#F9F9FB"/>
<path d="M626.757 803.119C586.576 803.137 577.495 796.348 581.494 770.545C581.742 768.963 581.796 767.31 582.275 765.8C586.754 751.707 627.236 743.479 652.4 751.885C671.575 758.283 669.07 775.023 665.711 788.245C660.042 810.494 639.641 800.72 626.774 803.119H626.757Z" fill="#F9F9FB"/>
<path d="M622.973 1603.75C586.613 1603.75 577.834 1596.98 581.424 1571.78C581.655 1570.2 581.655 1568.55 582.117 1567.04C586.471 1552.77 625.674 1544.61 651.957 1552.77C671.292 1558.78 668.005 1574.91 665.961 1588.76C663.988 1602.21 657.608 1603.75 622.955 1603.75H622.973Z" fill="#F9F9FB"/>
<path d="M623.347 1696.57C662.302 1696.57 669.392 1702.21 666.993 1728.4C666.069 1738.51 661.875 1747.15 652.172 1747.31C630.278 1747.7 606.678 1756.02 586.97 1741.62C577.249 1734.51 579.062 1720.3 583.06 1710.03C591.057 1689.48 610.375 1698.97 623.347 1696.59V1696.57Z" fill="#F9F9FB"/>
<path d="M622.651 1624.3C662.493 1624.3 669.033 1629.29 667.043 1655.2C666.261 1665.3 662.422 1673.88 652.684 1674.5C630.772 1675.9 607.421 1682.92 587.411 1669.53C577.139 1662.65 579.183 1648.4 582.826 1638.14C590.307 1617.1 609.802 1626.79 622.651 1624.28V1624.3Z" fill="#F9F9FB"/>
<path d="M625.336 1820.92C586.791 1820.86 578.136 1814.27 581.388 1789.09C581.601 1787.51 581.53 1785.85 581.975 1784.34C586.151 1769.82 623.594 1762.02 651.601 1769.91C671.398 1775.49 669.177 1792.16 665.801 1805.33C659.812 1828.72 638.487 1818.18 625.336 1820.92Z" fill="#F9F9FB"/>
<path d="M625.267 885.753C586.579 885.753 578.387 879.427 581.319 854.067C582.456 844.169 586.704 835.426 596.389 834.999C618.318 834.022 641.9 826.291 661.608 840.668C671.383 847.794 669.037 862.295 665.358 872.389C657.717 893.359 638.062 883.016 625.284 885.735L625.267 885.753Z" fill="#F9F9FB"/>
<path d="M778.788 3529.15C759.257 3528.51 743.317 3510.51 744.543 3490.54C745.734 3471.24 761.941 3456.35 781.08 3456.95C800.024 3457.55 815.663 3473.81 815.574 3492.81C815.467 3512.73 798.194 3529.79 778.788 3529.15Z" fill="#F9F9FB"/>
<path d="M508.099 3492.97C507.939 3513.41 491.341 3529.9 471.651 3529.21C453.187 3528.55 437.602 3511.84 437.602 3492.76C437.619 3472.3 454.111 3456.19 474.299 3456.91C493.616 3457.61 508.259 3473.23 508.099 3492.97Z" fill="#F9F9FB"/>
<path d="M80.013 2195.23C63.2194 2195.48 51.2417 2188.51 51.5083 2170.67C51.7926 2151.4 65.2097 2145.5 82.5721 2145.91C99.1525 2146.3 111.343 2153.34 111.272 2170.86C111.184 2190.32 97.1799 2195.71 80.0308 2195.21L80.013 2195.23Z" fill="#F9F9FB"/>
<path d="M1136.45 2371.53C1126.3 2369.88 1119.92 2365.71 1117.24 2357.25C1114.5 2348.61 1131.37 2308.61 1139.35 2303.76C1146.56 2299.35 1153.08 2301.18 1159.23 2305.71C1163.96 2309.19 1167.78 2314.4 1166.32 2319.93C1162.07 2335.99 1157.19 2352.07 1147.43 2365.78C1145.07 2369.1 1139.42 2370.08 1136.45 2371.53Z" fill="#F9F9FB"/>
<path d="M101.943 2249.62C101.943 2255.24 102.228 2260.87 101.89 2266.45C101.197 2277.44 95.9723 2284.92 84.279 2285.24C72.5501 2285.56 66.5611 2278.17 65.6548 2267.38C64.784 2257.04 65.4594 2246.55 65.6193 2236.14C65.8148 2223.47 70.2398 2213.18 84.6877 2213.75C99.1 2214.31 102.565 2224.99 102.157 2237.58C102.032 2241.57 102.139 2245.59 102.139 2249.61H101.961L101.943 2249.62Z" fill="#F9F9FB"/>
<path d="M1165.09 2195.26C1147.91 2195.51 1134.4 2190.32 1134.56 2170.44C1134.71 2152.33 1146.93 2146.18 1163.3 2145.95C1180.61 2145.7 1193.81 2151.69 1193.9 2171.06C1193.99 2189.31 1181.36 2195.1 1165.09 2195.26Z" fill="#F9F9FB"/>
<path d="M1179.12 2249.13C1179.12 2255.52 1179.49 2261.96 1179.03 2268.32C1178.3 2278.47 1172.81 2284.93 1162.41 2285.22C1150.99 2285.52 1144.47 2279.16 1143.83 2267.75C1143.24 2257.37 1143.51 2246.94 1143.29 2236.54C1143.03 2223.73 1147.24 2213.58 1161.65 2213.73C1176.29 2213.87 1179.65 2224.53 1179.28 2237.11C1179.16 2241.11 1179.26 2245.11 1179.26 2249.13C1179.21 2249.13 1179.17 2249.13 1179.12 2249.13Z" fill="#F9F9FB"/>
<path d="M1031.02 2233.74C1031.78 2224.3 1028.78 2214.83 1035.6 2207.74C1042.09 2201 1049.91 2201.25 1056.89 2207.17C1064.67 2213.74 1064.96 2251.52 1057.58 2259.22C1050.9 2266.19 1043.38 2266.52 1036.61 2260.05C1028.78 2252.54 1032.21 2242.11 1031.02 2233.75V2233.74Z" fill="#F9F9FB"/>
<path d="M1068.17 2150.2C1064 2161.52 1072.99 2186.5 1047.99 2182.93C1025.45 2179.71 1038.35 2158.73 1038.37 2145.18C1038.37 2133.31 1041.59 2121.53 1056.96 2123.72C1071.21 2125.74 1069.63 2137.58 1068.17 2150.18V2150.2Z" fill="#F9F9FB"/>
<path d="M176.759 2146.27C175.213 2135.93 176.048 2125.81 188.292 2123.57C200.839 2121.28 204.855 2130.47 206.188 2141.01C207.307 2149.73 208.533 2158.48 209.102 2167.26C209.706 2176.46 205.726 2183.11 195.987 2184.03C186.284 2184.96 181.184 2179.23 179.78 2170.1C178.554 2162.17 177.736 2154.19 176.741 2146.25L176.759 2146.27Z" fill="#F9F9FB"/>
<path d="M304.159 3604.86C302.702 3618.36 296.695 3628.14 281.857 3628.1C267.142 3628.05 259.963 3618.84 260.016 3604.88C260.069 3591.89 267.107 3583.53 280.595 3583C295.221 3582.43 302.435 3590.85 304.159 3604.88V3604.86Z" fill="#F9F9FB"/>
<path d="M993.178 3605.55C991.313 3619.13 985.217 3628.87 970.183 3628.07C955.664 3627.3 948.413 3617.8 948.911 3604.04C949.373 3591.21 957.228 3583.3 970.556 3582.98C985.626 3582.63 991.703 3591.99 993.161 3605.53L993.178 3605.55Z" fill="#F9F9FB"/>
<path d="M214.079 2239.76C213.777 2241.95 213.955 2249.34 211.555 2255.81C209.263 2261.99 202.617 2266.52 196.166 2263.86C174.254 2254.85 185.983 2235.23 183.975 2220.18C182.66 2210.33 187.956 2202.62 198.991 2203.33C216.834 2204.47 213.653 2218.56 214.061 2230.11C214.115 2231.69 214.061 2233.27 214.061 2239.78L214.079 2239.76Z" fill="#F9F9FB"/>
<path d="M415.782 459.337C416.652 414.288 448.267 382.513 491.397 383.366C535.63 384.255 564.952 415.816 564.223 461.825C563.512 506.377 529.356 542.044 487.808 541.599C445.193 541.137 414.875 506.502 415.782 459.32V459.337Z" fill="#26A69A"/>
<path d="M837.396 462.413C837.13 508.084 806.279 541.725 764.713 541.636C722.275 541.547 689.985 506.787 689.914 461.169C689.843 412.903 719.005 382.639 764.872 383.403C807.647 384.114 837.663 416.812 837.396 462.413Z" fill="#26A69A"/>
<path d="M626.971 485.391C640.672 489.371 650.464 499.696 657.803 512.403C664.201 523.492 670.883 534.954 663.188 548.371C657.892 557.63 648.314 561.486 641.01 555.515C629.05 545.741 620.591 547.909 608.737 555.355C600.172 560.74 591.908 554.68 587.874 545.226C580.464 527.881 606.872 486.208 626.971 485.391Z" fill="#26A69A"/>
<path d="M807.987 1924.61C805.801 1941.28 797.964 1952.88 780.477 1952.51C761.871 1952.1 753.075 1939.98 753.928 1922.23C754.727 1905.33 764.786 1895.13 781.988 1895.89C799.421 1896.66 806.672 1908.56 807.987 1924.61Z" fill="#26A69A"/>
<path d="M499.428 1924.42C497.935 1940.07 490.685 1952.05 473.18 1952.48C454.467 1952.94 445.244 1941.1 445.297 1923.38C445.333 1906.4 455.267 1895.82 472.327 1895.88C489.547 1895.93 497.935 1907.04 499.445 1924.43L499.428 1924.42Z" fill="#26A69A"/>
</svg>
