<svg width="1000" height="1000" viewBox="0 0 1000 1000" fill="none" xmlns="http://www.w3.org/2000/svg">
<path d="M0.00962187 500.73C-1.68706 226.869 221.223 2.02307 496.357 0.0133879C774.307 -1.99629 1000.37 222.509 1000 500.151C999.626 775.75 778.209 998.381 502.838 999.982C437.111 1000.54 371.922 988.046 311.022 963.221C250.122 938.396 194.713 901.73 147.982 855.331C101.251 808.932 64.1197 753.717 38.7249 692.861C13.3302 632.005 0.17279 566.709 0.00962187 500.73ZM557.064 452.123L780.653 210.28C768.979 210.28 762.227 211.166 755.745 210.28C734.605 206.874 720.658 215.935 706.576 231.672C653.469 291.042 598.701 348.914 544.814 407.604C541.149 411.589 539.554 417.516 536.059 424.328C482.614 352.797 433.749 287.772 385.394 222.338C382.891 218.356 379.362 215.127 375.18 212.992C370.999 210.858 366.321 209.897 361.64 210.212C311.452 210.757 261.231 210.417 211.043 210.485C206.19 210.485 201.372 211.098 194.076 211.575C198.691 218.387 201.915 223.36 205.512 228.129C277.519 324.594 349.628 420.979 421.838 517.284C429.677 527.673 428.625 533.328 420.176 542.491C348.078 619.699 276.297 697.236 204.833 775.103C201.202 779.054 198.046 783.312 192.108 790.226C199.817 789.769 207.549 789.826 215.251 790.396C236.256 793.598 250.44 785.151 264.624 769.346C322.786 704.627 382.442 641.237 441.418 577.268C445.773 572.013 449.851 566.533 453.634 560.85C460.421 569.604 464.459 574.816 468.429 580.13C517.463 645.802 566.837 711.338 615.328 777.283C618.169 781.699 622.149 785.26 626.846 787.588C631.542 789.915 636.779 790.921 642 790.499C691.068 789.852 740.136 790.26 789.238 790.192C794.599 790.192 799.927 789.715 808.58 789.272L557.064 452.123Z" fill="white"/>
<path d="M272.734 249.456C299.881 249.456 323.635 248.434 347.388 250.103C354.175 250.58 361.878 257.597 366.459 263.728C465.477 395.663 564.281 527.768 662.869 660.044L730.228 750.207C700.434 750.207 674.339 750.616 648.312 749.73C644.613 749.73 640.609 743.701 637.657 739.75C518.821 580.928 400.155 422.073 281.659 263.183C278.91 259.709 276.806 255.894 272.734 249.456Z" fill="white"/>
</svg>
